<svg width="88" height="99" viewBox="0 0 88 99" fill="none" xmlns="http://www.w3.org/2000/svg">
    <g filter="url(#filter0_ii_0_1)">
        <path d="M44 4.30176C44.7771 4.30176 45.6527 4.48932 47.0732 5.13281C48.1917 5.63945 49.4901 6.35195 51.21 7.33496L53.0791 8.41016L75.0449 21.0928C77.7484 22.6536 79.5552 23.7017 80.8857 24.6553C82.1534 25.5638 82.755 26.2274 83.1436 26.9004C83.5321 27.5734 83.806 28.4264 83.959 29.9785C84.1195 31.6075 84.124 33.696 84.124 36.8174V62.1826C84.124 65.304 84.1195 67.3925 83.959 69.0215C83.806 70.5736 83.5321 71.4266 83.1436 72.0996C82.755 72.7726 82.1534 73.4362 80.8857 74.3447C79.8878 75.0599 78.6222 75.8283 76.9111 76.8262L75.0449 77.9072L53.0791 90.5898C50.3756 92.1507 48.5644 93.1917 47.0732 93.8672C45.6527 94.5107 44.7771 94.6982 44 94.6982C43.2229 94.6982 42.3473 94.5107 40.9268 93.8672C39.8083 93.3606 38.5099 92.648 36.79 91.665L34.9209 90.5898L12.9551 77.9072C10.2516 76.3464 8.44481 75.2983 7.11426 74.3447C5.84659 73.4362 5.24502 72.7726 4.85645 72.0996C4.46787 71.4266 4.19402 70.5736 4.04102 69.0215C3.88046 67.3925 3.87598 65.304 3.87598 62.1826V36.8174C3.87598 33.696 3.88046 31.6075 4.04102 29.9785C4.19402 28.4264 4.46787 27.5734 4.85645 26.9004C5.24502 26.2274 5.84659 25.5638 7.11426 24.6553C8.11216 23.9401 9.37781 23.1717 11.0889 22.1738L12.9551 21.0928L34.9209 8.41016C37.6244 6.84926 39.4356 5.8083 40.9268 5.13281C42.1698 4.56975 42.9955 4.35536 43.7031 4.31055L44 4.30176Z" stroke="#D9F8FF" stroke-width="7.03125"/>
    </g>
    <g filter="url(#filter1_ii_0_1)">
        <path d="M41.3904 15.6735C42.7125 14.9102 43.3736 14.5285 44.0995 14.5285C44.8255 14.5285 45.4865 14.9102 46.8087 15.6735L72.1258 30.2903C73.4479 31.0537 74.109 31.4353 74.472 32.064C74.8349 32.6927 74.8349 33.456 74.8349 34.9827V64.2163C74.8349 65.743 74.8349 66.5064 74.472 67.1351C74.109 67.7637 73.4479 68.1454 72.1258 68.9088L46.8087 83.5256C45.4865 84.2889 44.8255 84.6706 44.0995 84.6706C43.3736 84.6706 42.7125 84.2889 41.3904 83.5256L16.0733 68.9088C14.7512 68.1454 14.0901 67.7637 13.7271 67.1351C13.3642 66.5064 13.3642 65.7431 13.3642 64.2163V34.9827C13.3642 33.456 13.3642 32.6927 13.7271 32.064C14.0901 31.4353 14.7512 31.0537 16.0733 30.2903L41.3904 15.6735Z" fill="#D9F8FF"/>
    </g>
    <g filter="url(#filter2_ii_0_1)">
        <path d="M29.3425 64.5358H31.3501C31.354 65.1776 31.2288 65.7255 30.9744 66.1794C30.7239 66.6295 30.3698 66.97 29.9119 67.2009C29.454 67.4318 28.9178 67.5472 28.3034 67.5472C27.8064 67.5472 27.3661 67.4611 26.9826 67.2889C26.5991 67.1167 26.2762 66.8663 26.014 66.5375C25.7518 66.2088 25.5542 65.8116 25.4211 65.3459C25.2881 64.8762 25.2215 64.344 25.2215 63.7491V62.5575C25.2215 61.9665 25.292 61.4362 25.4329 60.9666C25.5777 60.497 25.7812 60.0978 26.0434 59.7691C26.3095 59.4404 26.6304 59.1899 27.0061 59.0177C27.3857 58.8455 27.8084 58.7594 28.2741 58.7594C28.9276 58.7594 29.4794 58.8827 29.9295 59.1292C30.3835 59.3719 30.7318 59.7241 30.9744 60.1859C31.217 60.6438 31.3462 61.1936 31.3618 61.8354H29.3542C29.3738 61.4636 29.3503 61.1721 29.2838 60.9608C29.2172 60.7455 29.0998 60.5948 28.9315 60.5087C28.7672 60.4187 28.548 60.3737 28.2741 60.3737C28.0862 60.3737 27.9277 60.4109 27.7986 60.4853C27.6694 60.5596 27.5657 60.6829 27.4875 60.8551C27.4092 61.0234 27.3524 61.2464 27.3172 61.5243C27.282 61.8022 27.2644 62.1426 27.2644 62.5457V63.7491C27.2644 64.1601 27.2781 64.5045 27.3055 64.7823C27.3329 65.0602 27.3837 65.2852 27.4581 65.4574C27.5364 65.6257 27.642 65.747 27.7751 65.8214C27.9121 65.8957 28.0882 65.9329 28.3034 65.9329C28.5304 65.9329 28.7241 65.8957 28.8846 65.8214C29.045 65.7431 29.1664 65.6042 29.2485 65.4046C29.3307 65.2011 29.362 64.9115 29.3425 64.5358ZM31.9958 64.5534V63.9605C31.9958 63.4595 32.0584 63.0232 32.1837 62.6514C32.3089 62.2757 32.487 61.9646 32.7179 61.718C32.9488 61.4676 33.2247 61.2797 33.5456 61.1545C33.8665 61.0253 34.2246 60.9608 34.6198 60.9608C35.0229 60.9608 35.3849 61.0253 35.7059 61.1545C36.0268 61.2797 36.3027 61.4676 36.5336 61.718C36.7645 61.9646 36.9425 62.2757 37.0678 62.6514C37.193 63.0232 37.2556 63.4595 37.2556 63.9605V64.5534C37.2556 65.0504 37.193 65.4867 37.0678 65.8624C36.9425 66.2381 36.7645 66.5512 36.5336 66.8017C36.3066 67.0522 36.0307 67.24 35.7059 67.3652C35.3849 67.4866 35.0269 67.5472 34.6316 67.5472C34.2363 67.5472 33.8763 67.4866 33.5515 67.3652C33.2266 67.24 32.9488 67.0522 32.7179 66.8017C32.487 66.5512 32.3089 66.2381 32.1837 65.8624C32.0584 65.4867 31.9958 65.0504 31.9958 64.5534ZM33.9272 63.9605V64.5534C33.9272 64.8234 33.9428 65.0543 33.9741 65.2461C34.0054 65.4339 34.0504 65.5865 34.1091 65.7039C34.1718 65.8174 34.2461 65.8996 34.3322 65.9505C34.4183 66.0014 34.5181 66.0268 34.6316 66.0268C34.7764 66.0268 34.8938 66.0014 34.9838 65.9505C35.0777 65.8996 35.1501 65.8174 35.201 65.7039C35.2519 65.5865 35.2851 65.4339 35.3008 65.2461C35.3204 65.0543 35.3302 64.8234 35.3302 64.5534V63.9605C35.3302 63.6944 35.3145 63.4693 35.2832 63.2854C35.2558 63.0975 35.2108 62.9449 35.1482 62.8275C35.0895 62.7062 35.0151 62.6201 34.9251 62.5692C34.8351 62.5144 34.7333 62.487 34.6198 62.487C34.5103 62.487 34.4124 62.5144 34.3263 62.5692C34.2402 62.6201 34.1678 62.7062 34.1091 62.8275C34.0504 62.9449 34.0054 63.0975 33.9741 63.2854C33.9428 63.4693 33.9272 63.6944 33.9272 63.9605ZM41.1476 65.8859V61.0782H43.0789V67.4298H41.2768L41.1476 65.8859ZM41.3237 64.5945L41.7992 64.5827C41.7992 65.0093 41.7562 65.4046 41.6701 65.7685C41.584 66.1286 41.4587 66.4416 41.2944 66.7078C41.13 66.9739 40.9284 67.1813 40.6897 67.33C40.4549 67.4748 40.1829 67.5472 39.8738 67.5472C39.6076 67.5472 39.365 67.5042 39.1458 67.4181C38.9306 67.3281 38.7427 67.1891 38.5823 67.0013C38.4258 66.8095 38.3025 66.5649 38.2125 66.2675C38.1264 65.9662 38.0833 65.6061 38.0833 65.1874V61.0782H40.0088V65.1991C40.0088 65.34 40.0186 65.4613 40.0381 65.5631C40.0616 65.6648 40.0929 65.7509 40.132 65.8214C40.1751 65.8879 40.2299 65.9388 40.2964 65.974C40.3629 66.0053 40.4412 66.0209 40.5312 66.0209C40.7347 66.0209 40.8952 65.9583 41.0126 65.8331C41.13 65.7079 41.2102 65.5376 41.2533 65.3224C41.3002 65.1071 41.3237 64.8645 41.3237 64.5945ZM45.9847 62.4342V67.4298H44.0534V61.0782H45.8614L45.9847 62.4342ZM45.7558 64.0368L45.3214 64.0485C45.3136 63.5632 45.3566 63.1308 45.4505 62.7512C45.5484 62.3677 45.6873 62.0428 45.8673 61.7767C46.0513 61.5106 46.2704 61.3091 46.5248 61.1721C46.7792 61.0312 47.0629 60.9608 47.376 60.9608C47.6147 60.9608 47.8358 61.0038 48.0393 61.0899C48.2467 61.176 48.4248 61.3149 48.5735 61.5067C48.7222 61.6985 48.8377 61.9528 48.9199 62.2698C49.002 62.5829 49.0431 62.9703 49.0431 63.4321V67.4298H47.1059V63.4263C47.1059 63.1719 47.0825 62.9782 47.0355 62.8451C46.9925 62.7081 46.924 62.6142 46.83 62.5633C46.74 62.5125 46.6246 62.487 46.4837 62.487C46.3467 62.487 46.2293 62.5262 46.1315 62.6044C46.0376 62.6827 45.9612 62.7923 45.9025 62.9332C45.8477 63.0701 45.8086 63.2326 45.7851 63.4204C45.7656 63.6083 45.7558 63.8137 45.7558 64.0368ZM53.0702 61.0782V62.4518H49.7124V61.0782H53.0702ZM50.3229 59.4991H52.2542V65.3576C52.2542 65.5259 52.2659 65.657 52.2894 65.7509C52.3168 65.8409 52.3657 65.9055 52.4362 65.9446C52.5105 65.9798 52.6142 65.9975 52.7473 65.9975C52.8412 65.9975 52.9175 65.9955 52.9762 65.9916C53.0388 65.9838 53.0936 65.974 53.1406 65.9622L53.1289 67.377C52.9762 67.4318 52.8177 67.4729 52.6534 67.5003C52.4929 67.5316 52.3168 67.5472 52.125 67.5472C51.7454 67.5472 51.4206 67.4807 51.1506 67.3476C50.8845 67.2146 50.679 67.0052 50.5342 66.7195C50.3933 66.4338 50.3229 66.062 50.3229 65.6042V59.4991ZM56.5336 67.5472C56.0797 67.5472 55.6746 67.4846 55.3185 67.3594C54.9663 67.2341 54.6708 67.0502 54.4321 66.8076C54.1933 66.561 54.0114 66.2616 53.8861 65.9094C53.7648 65.5572 53.7041 65.1541 53.7041 64.7001V64.0074C53.7041 63.4987 53.757 63.0545 53.8626 62.6749C53.9722 62.2953 54.1346 61.9802 54.3499 61.7298C54.5651 61.4754 54.8391 61.2836 55.1717 61.1545C55.5044 61.0253 55.8957 60.9608 56.3458 60.9608C56.741 60.9608 57.0913 61.0195 57.3966 61.1369C57.7057 61.2543 57.966 61.4362 58.1773 61.6828C58.3926 61.9254 58.5569 62.2366 58.6704 62.6162C58.7839 62.9919 58.8406 63.438 58.8406 63.9546V64.8762H54.4262V63.6376H56.9563V63.4204C56.9602 63.1621 56.9367 62.9664 56.8858 62.8334C56.8389 62.7003 56.7684 62.6103 56.6745 62.5633C56.5806 62.5125 56.4651 62.487 56.3282 62.487C56.1677 62.487 56.0405 62.5144 55.9466 62.5692C55.8527 62.624 55.7842 62.7101 55.7411 62.8275C55.6981 62.9449 55.6687 63.1015 55.6531 63.2971C55.6413 63.4928 55.6355 63.7296 55.6355 64.0074V64.7001C55.6355 64.9741 55.657 65.1971 55.7 65.3693C55.747 65.5415 55.8135 65.6746 55.8996 65.7685C55.9896 65.8624 56.0973 65.929 56.2225 65.9681C56.3516 66.0033 56.4984 66.0209 56.6628 66.0209C56.8976 66.0209 57.1265 65.9818 57.3496 65.9035C57.5727 65.8214 57.7625 65.6883 57.919 65.5044L58.7056 66.7019C58.6 66.8389 58.4434 66.9739 58.236 67.1069C58.0286 67.2361 57.782 67.3418 57.4964 67.4239C57.2107 67.5061 56.8898 67.5472 56.5336 67.5472ZM61.5821 62.6514V67.4298H59.6507V61.0782H61.4471L61.5821 62.6514ZM63.0555 61.0312L63.032 62.8686C62.9577 62.8608 62.8598 62.851 62.7385 62.8392C62.6172 62.8275 62.5174 62.8216 62.4391 62.8216C62.263 62.8216 62.1143 62.849 61.993 62.9038C61.8717 62.9547 61.7699 63.033 61.6877 63.1386C61.6095 63.2404 61.5527 63.3695 61.5175 63.5261C61.4823 63.6826 61.4666 63.8646 61.4705 64.072L61.1477 63.8372C61.1477 63.4106 61.1809 63.0232 61.2475 62.6749C61.3179 62.3227 61.4157 62.0194 61.541 61.765C61.6662 61.5067 61.8169 61.3091 61.993 61.1721C62.1691 61.0312 62.3648 60.9608 62.58 60.9608C62.6622 60.9608 62.7463 60.9666 62.8324 60.9784C62.9185 60.9901 62.9929 61.0077 63.0555 61.0312Z" fill="#003541"/>
        <path fill-rule="evenodd" clip-rule="evenodd" d="M60.4759 40.4861V35.8746H58.4996V33.8982H54.5469V31.9219H51.9117V33.8982H47.959V35.8746H45.9827V44.4388H47.959V46.4151H51.9117V49.709H50.5942V47.7327H45.9827V52.3442H47.959V54.3205H51.9117V56.2969H54.5469V54.3205H58.4996V52.3442H60.4759V43.78H58.4996V41.8036H54.5469V38.5097H55.8644V40.4861H60.4759ZM51.9117 38.5097V41.8036H50.5941V38.5097H51.9117ZM54.5468 46.4151V49.709H55.8644V46.4151H54.5468Z" fill="#003541"/>
        <path fill-rule="evenodd" clip-rule="evenodd" d="M27.8281 54.3206V33.8983H40.345V35.8746H42.3214V44.4388H40.345V45.7564H42.3214V54.3206H37.7099V48.3915H32.4396V54.3206H27.8281ZM32.4396 43.78V38.5097H37.7099V43.78H32.4396Z" fill="#003541"/>
    </g>
    <defs>
        <filter id="filter0_ii_0_1" x="0.360474" y="-1.55792" width="87.2791" height="102.116" filterUnits="userSpaceOnUse" color-interpolation-filters="sRGB">
            <feFlood flood-opacity="0" result="BackgroundImageFix"/>
            <feBlend mode="normal" in="SourceGraphic" in2="BackgroundImageFix" result="shape"/>
            <feColorMatrix in="SourceAlpha" type="matrix" values="0 0 0 0 0 0 0 0 0 0 0 0 0 0 0 0 0 0 127 0" result="hardAlpha"/>
            <feOffset dy="2.34375"/>
            <feGaussianBlur stdDeviation="1.17188"/>
            <feComposite in2="hardAlpha" operator="arithmetic" k2="-1" k3="1"/>
            <feColorMatrix type="matrix" values="0 0 0 0 1 0 0 0 0 1 0 0 0 0 1 0 0 0 0.5 0"/>
            <feBlend mode="normal" in2="shape" result="effect1_innerShadow_0_1"/>
            <feColorMatrix in="SourceAlpha" type="matrix" values="0 0 0 0 0 0 0 0 0 0 0 0 0 0 0 0 0 0 127 0" result="hardAlpha"/>
            <feOffset dy="-2.34375"/>
            <feGaussianBlur stdDeviation="1.17188"/>
            <feComposite in2="hardAlpha" operator="arithmetic" k2="-1" k3="1"/>
            <feColorMatrix type="matrix" values="0 0 0 0 0 0 0 0 0 0 0 0 0 0 0 0 0 0 0.5 0"/>
            <feBlend mode="normal" in2="effect1_innerShadow_0_1" result="effect2_innerShadow_0_1"/>
        </filter>
        <filter id="filter1_ii_0_1" x="13.3641" y="12.1848" width="61.4708" height="74.8297" filterUnits="userSpaceOnUse" color-interpolation-filters="sRGB">
            <feFlood flood-opacity="0" result="BackgroundImageFix"/>
            <feBlend mode="normal" in="SourceGraphic" in2="BackgroundImageFix" result="shape"/>
            <feColorMatrix in="SourceAlpha" type="matrix" values="0 0 0 0 0 0 0 0 0 0 0 0 0 0 0 0 0 0 127 0" result="hardAlpha"/>
            <feOffset dy="2.34375"/>
            <feGaussianBlur stdDeviation="2.34375"/>
            <feComposite in2="hardAlpha" operator="arithmetic" k2="-1" k3="1"/>
            <feColorMatrix type="matrix" values="0 0 0 0 1 0 0 0 0 1 0 0 0 0 1 0 0 0 1 0"/>
            <feBlend mode="normal" in2="shape" result="effect1_innerShadow_0_1"/>
            <feColorMatrix in="SourceAlpha" type="matrix" values="0 0 0 0 0 0 0 0 0 0 0 0 0 0 0 0 0 0 127 0" result="hardAlpha"/>
            <feOffset dy="-2.34375"/>
            <feGaussianBlur stdDeviation="2.34375"/>
            <feComposite in2="hardAlpha" operator="arithmetic" k2="-1" k3="1"/>
            <feColorMatrix type="matrix" values="0 0 0 0 0 0 0 0 0 0 0 0 0 0 0 0 0 0 0.6 0"/>
            <feBlend mode="normal" in2="effect1_innerShadow_0_1" result="effect2_innerShadow_0_1"/>
        </filter>
        <filter id="filter2_ii_0_1" x="25.2216" y="31.4531" width="37.834" height="36.5629" filterUnits="userSpaceOnUse" color-interpolation-filters="sRGB">
            <feFlood flood-opacity="0" result="BackgroundImageFix"/>
            <feBlend mode="normal" in="SourceGraphic" in2="BackgroundImageFix" result="shape"/>
            <feColorMatrix in="SourceAlpha" type="matrix" values="0 0 0 0 0 0 0 0 0 0 0 0 0 0 0 0 0 0 127 0" result="hardAlpha"/>
            <feOffset dy="0.46875"/>
            <feGaussianBlur stdDeviation="0.234375"/>
            <feComposite in2="hardAlpha" operator="arithmetic" k2="-1" k3="1"/>
            <feColorMatrix type="matrix" values="0 0 0 0 1 0 0 0 0 1 0 0 0 0 1 0 0 0 0.5 0"/>
            <feBlend mode="normal" in2="shape" result="effect1_innerShadow_0_1"/>
            <feColorMatrix in="SourceAlpha" type="matrix" values="0 0 0 0 0 0 0 0 0 0 0 0 0 0 0 0 0 0 127 0" result="hardAlpha"/>
            <feOffset dy="-0.46875"/>
            <feGaussianBlur stdDeviation="0.234375"/>
            <feComposite in2="hardAlpha" operator="arithmetic" k2="-1" k3="1"/>
            <feColorMatrix type="matrix" values="0 0 0 0 0 0 0 0 0 0 0 0 0 0 0 0 0 0 0.5 0"/>
            <feBlend mode="normal" in2="effect1_innerShadow_0_1" result="effect2_innerShadow_0_1"/>
        </filter>
    </defs>
</svg>