<svg width="16" height="20" viewBox="0 0 16 20" fill="none" xmlns="http://www.w3.org/2000/svg">
    <path fill-rule="evenodd" clip-rule="evenodd"
          d="M15.1115 5.16314L8.44524 11.1628C8.19325 11.3908 7.8066 11.3908 7.55328 11.1628L0.88698 5.16314C0.748321 5.03514 0.666992 4.85649 0.666992 4.66716V0.66738C0.666992 0.404728 0.82165 0.166074 1.06297 0.0580799C1.30296 -0.0499143 1.58428 -0.00458338 1.78026 0.171407L7.99993 5.76977L14.2209 0.171408C14.4156 -0.00458282 14.6969 -0.0485804 14.9382 0.0580805C15.0557 0.110867 15.1554 0.196442 15.2254 0.304526C15.2954 0.41261 15.3327 0.538606 15.3329 0.667381V4.66716C15.3329 4.85649 15.2529 5.03514 15.1115 5.16314ZM15.1115 13.8293L8.44524 19.829C8.19325 20.057 7.8066 20.057 7.55328 19.829L0.88698 13.8293C0.748321 13.7013 0.666992 13.5227 0.666992 13.3334V9.33358C0.666992 9.07093 0.82165 8.83227 1.06297 8.72428C1.30296 8.61628 1.58428 8.66162 1.78026 8.83761L7.99993 14.436L14.2209 8.83761C14.4156 8.66162 14.6969 8.61762 14.9382 8.72428C15.0557 8.77707 15.1554 8.86264 15.2254 8.97073C15.2954 9.07881 15.3327 9.20481 15.3329 9.33358V13.3334C15.3329 13.5227 15.2529 13.7013 15.1115 13.8293Z"
          fill="black"/>
</svg>