<svg width="16" height="12" viewBox="0 0 16 12" fill="none" xmlns="http://www.w3.org/2000/svg">
    <path d="M1.92578 6.97656H13.5664C14.1059 6.97656 14.543 6.53945 14.543 6C14.543 5.46055 14.1059 5.02344 13.5664 5.02344H1.92578C1.38633 5.02344 0.949219 5.46055 0.949219 6C0.949219 6.53945 1.38633 6.97656 1.92578 6.97656Z"
          fill="#003541"/>
    <path d="M9.09413 11.5957C9.33163 11.5957 9.56991 11.5094 9.7578 11.3352L14.7383 6.71603C14.8377 6.62386 14.9168 6.51201 14.9706 6.38759C15.0244 6.26318 15.0517 6.12892 15.0508 5.99338C15.0498 5.85783 15.0207 5.72396 14.9652 5.60028C14.9098 5.47661 14.8291 5.36584 14.7285 5.27502L9.61131 0.655878C9.21092 0.29455 8.59335 0.326191 8.23202 0.726581C7.87069 1.12697 7.90233 1.74455 8.30272 2.10588L12.6277 6.00978L8.42967 9.90314C8.03436 10.2699 8.01092 10.8879 8.37772 11.2832C8.5703 11.4906 8.83163 11.5957 9.09413 11.5957Z"
          fill="#003541"/>
</svg>
