<svg width="50" height="50" viewBox="0 0 50 50" fill="none" xmlns="http://www.w3.org/2000/svg">
    <rect width="50" height="50" rx="25" fill="#F6F6F6"/>
    <rect x="0.5" y="0.5" width="49" height="49" rx="24.5" stroke="#003541" stroke-opacity="0.1"/>
    <path d="M31.0742 25.9766H19.4336C18.8941 25.9766 18.457 25.5395 18.457 25C18.457 24.4605 18.8941 24.0234 19.4336 24.0234H31.0742C31.6137 24.0234 32.0508 24.4605 32.0508 25C32.0508 25.5395 31.6137 25.9766 31.0742 25.9766Z" fill="#003541"/>
    <path d="M23.9059 30.5957C23.6684 30.5957 23.4301 30.5094 23.2422 30.3352L18.2617 25.716C18.1623 25.6239 18.0832 25.512 18.0294 25.3876C17.9756 25.2632 17.9483 25.1289 17.9492 24.9934C17.9502 24.8578 17.9793 24.724 18.0348 24.6003C18.0902 24.4766 18.1709 24.3658 18.2715 24.275L23.3887 19.6559C23.7891 19.2945 24.4067 19.3262 24.768 19.7266C25.1293 20.127 25.0977 20.7445 24.6973 21.1059L20.3723 25.0098L24.5703 28.9031C24.9656 29.2699 24.9891 29.8879 24.6223 30.2832C24.4297 30.4906 24.1684 30.5957 23.9059 30.5957Z" fill="#003541"/>
</svg>
