<?xml version="1.0" encoding="UTF-8" standalone="no" ?>
<!DOCTYPE svg PUBLIC "-//W3C//DTD SVG 1.1//EN" "http://www.w3.org/Graphics/SVG/1.1/DTD/svg11.dtd">
<svg xmlns="http://www.w3.org/2000/svg" xmlns:xlink="http://www.w3.org/1999/xlink" version="1.1" width="1080" height="1080" viewBox="0 0 1080 1080" xml:space="preserve">
<desc>Created with Fabric.js 5.2.4</desc>
<defs>
</defs>
<rect x="0" y="0" width="100%" height="100%" fill="transparent"></rect>
<g transform="matrix(1 0 0 1 540 540)" id="32aaf3a6-d81e-42a1-87b7-6907fe26ddec"  >
</g>
<g transform="matrix(1 0 0 1 540 540)" id="299b5a76-ce62-4423-9eae-3fc663aaee29"  >
<rect style="stroke: none; stroke-width: 1; stroke-dasharray: none; stroke-linecap: butt; stroke-dashoffset: 0; stroke-linejoin: miter; stroke-miterlimit: 4; fill: rgb(255,255,255); fill-rule: nonzero; opacity: 1; visibility: hidden;" vector-effect="non-scaling-stroke"  x="-540" y="-540" rx="0" ry="0" width="1080" height="1080" />
</g>
<g transform="matrix(0 0 0 0 0 0)"  >
<g style=""   >
</g>
</g>
<g transform="matrix(0 0 0 0 0 0)"  >
<g style=""   >
</g>
</g>
<g transform="matrix(0 0 0 0 0 0)"  >
<g style=""   >
</g>
</g>
<g transform="matrix(0 0 0 0 0 0)"  >
<g style=""   >
</g>
</g>
<g transform="matrix(12 0 0 12 539.5 539.5)"  >
<rect style="stroke: rgb(0,53,65); stroke-opacity: 0.1; stroke-width: 0; stroke-dasharray: none; stroke-linecap: butt; stroke-dashoffset: 0; stroke-linejoin: miter; stroke-miterlimit: 4; fill: rgb(242,242,242); fill-rule: nonzero; opacity: 1;" vector-effect="non-scaling-stroke"  x="-44" y="-44" rx="44" ry="44" width="88" height="88" />
</g>
<g transform="matrix(13.62 0 0 13.62 451.7 435.75)" clip-path="url(#CLIPPATH_21)"  >
<clipPath id="CLIPPATH_21" >
	<rect transform="matrix(1 0 0 1 6.48 7.66)" id="clip0_17_464" x="-10" y="-10" rx="0" ry="0" width="20" height="20" />
</clipPath>
<path style="stroke: none; stroke-width: 1; stroke-dasharray: none; stroke-linecap: butt; stroke-dashoffset: 0; stroke-linejoin: miter; stroke-miterlimit: 4; fill: rgb(0,53,65); fill-rule: nonzero; opacity: 1;" vector-effect="non-scaling-stroke"  transform=" translate(-13.52, -12.34)" d="M 13.5156 14.6876 C 12.223 14.6876 11.1719 13.6364 11.1719 12.3438 C 11.1719 11.0512 12.223 10.0001 13.5156 10.0001 C 14.8082 10.0001 15.8594 11.0512 15.8594 12.3438 C 15.8594 13.6364 14.8082 14.6876 13.5156 14.6876 Z" stroke-linecap="round" />
</g>
<g transform="matrix(13.62 0 0 13.62 628.3 596.38)" clip-path="url(#CLIPPATH_22)"  >
<clipPath id="CLIPPATH_22" >
	<rect transform="matrix(1 0 0 1 -6.48 -4.14)" id="clip0_17_464" x="-10" y="-10" rx="0" ry="0" width="20" height="20" />
</clipPath>
<path style="stroke: none; stroke-width: 1; stroke-dasharray: none; stroke-linecap: butt; stroke-dashoffset: 0; stroke-linejoin: miter; stroke-miterlimit: 4; fill: rgb(0,53,65); fill-rule: nonzero; opacity: 1;" vector-effect="non-scaling-stroke"  transform=" translate(-26.48, -24.14)" d="M 26.4844 26.4844 C 25.1918 26.4844 24.1406 25.4332 24.1406 24.1406 C 24.1406 22.848 25.1918 21.7969 26.4844 21.7969 C 27.777 21.7969 28.8281 22.848 28.8281 24.1406 C 28.8281 25.4332 27.777 26.4844 26.4844 26.4844 Z" stroke-linecap="round" />
</g>
<g transform="matrix(13.62 0 0 13.62 491.53 604.36)" clip-path="url(#CLIPPATH_23)"  >
<clipPath id="CLIPPATH_23" >
	<rect transform="matrix(1 0 0 1 3.56 -4.73)" id="clip0_17_464" x="-10" y="-10" rx="0" ry="0" width="20" height="20" />
</clipPath>
<path style="stroke: none; stroke-width: 1; stroke-dasharray: none; stroke-linecap: butt; stroke-dashoffset: 0; stroke-linejoin: miter; stroke-miterlimit: 4; fill: rgb(0,53,65); fill-rule: nonzero; opacity: 1;" vector-effect="non-scaling-stroke"  transform=" translate(-16.44, -24.73)" d="M 15.8668 25.2101 C 15.8668 25.5334 15.6007 25.847 15.2774 25.847 C 14.9535 25.847 14.6875 25.6364 14.6875 25.3125 C 14.6875 24.7214 15.0028 24.274 15.472 24.1069 C 15.7031 24.0233 15.8594 23.8019 15.8594 23.5547 C 15.8594 23.2314 15.5967 22.9688 15.2734 22.9688 C 14.9501 22.9688 14.6875 23.2314 14.6875 23.5547 C 14.6875 23.8786 14.4254 24.1406 14.1016 24.1406 C 13.7777 24.1406 13.5156 23.8786 13.5156 23.5547 C 13.5156 22.5854 14.3041 21.7969 15.2734 21.7969 C 16.2427 21.7969 17.0312 22.5854 17.0312 23.5547 C 17.0312 24.2946 16.5631 24.9601 15.8668 25.2101 Z M 15.2734 27.6563 C 14.9498 27.6563 14.6875 27.3939 14.6875 27.0703 C 14.6875 26.7466 14.9498 26.4844 15.2734 26.4844 C 15.597 26.4844 15.8594 26.7466 15.8594 27.0703 C 15.8594 27.3939 15.597 27.6563 15.2734 27.6563 Z M 22.4717 24.1641 C 21.3479 23.7904 20.3923 23.0243 19.7812 22.0075 C 18.8199 20.4082 17.1348 19.4532 15.2734 19.4532 C 12.3655 19.4532 10 21.8187 10 24.7266 C 10 27.6345 12.3655 30 15.2734 30 C 17.1313 30 18.8148 29.0479 19.7772 27.4531 C 20.3935 26.4312 21.3554 25.661 22.49 25.2822 C 22.7292 25.2027 22.8814 24.9755 22.8814 24.7231 C 22.8814 24.4714 22.7109 24.2442 22.4717 24.1641 Z" stroke-linecap="round" />
</g>
<g transform="matrix(13.62 0 0 13.62 451.7 491.6)" clip-path="url(#CLIPPATH_24)"  >
<clipPath id="CLIPPATH_24" >
	<rect transform="matrix(1 0 0 1 6.48 3.55)" id="clip0_17_464" x="-10" y="-10" rx="0" ry="0" width="20" height="20" />
</clipPath>
<path style="stroke: none; stroke-width: 1; stroke-dasharray: none; stroke-linecap: butt; stroke-dashoffset: 0; stroke-linejoin: miter; stroke-miterlimit: 4; fill: rgb(0,53,65); fill-rule: nonzero; opacity: 1;" vector-effect="non-scaling-stroke"  transform=" translate(-13.52, -16.45)" d="M 16.4453 18.2032 L 10.5859 18.2032 C 10.2621 18.2032 10 17.9411 10 17.6173 C 10 16.0019 11.3143 14.6876 12.9297 14.6876 L 14.1016 14.6876 C 15.7169 14.6876 17.0312 16.0019 17.0312 17.6173 C 17.0312 17.9411 16.7692 18.2032 16.4453 18.2032 Z" stroke-linecap="round" />
</g>
<g transform="matrix(13.62 0 0 13.62 628.3 652.23)" clip-path="url(#CLIPPATH_25)"  >
<clipPath id="CLIPPATH_25" >
	<rect transform="matrix(1 0 0 1 -6.48 -8.24)" id="clip0_17_464" x="-10" y="-10" rx="0" ry="0" width="20" height="20" />
</clipPath>
<path style="stroke: none; stroke-width: 1; stroke-dasharray: none; stroke-linecap: butt; stroke-dashoffset: 0; stroke-linejoin: miter; stroke-miterlimit: 4; fill: rgb(0,53,65); fill-rule: nonzero; opacity: 1;" vector-effect="non-scaling-stroke"  transform=" translate(-26.48, -28.24)" d="M 29.414 30 L 23.5547 30 C 23.2308 30 22.9688 29.7379 22.9688 29.4141 C 22.9688 27.7987 24.2831 26.4844 25.8984 26.4844 L 27.0703 26.4844 C 28.6856 26.4844 30 27.7987 30 29.4141 C 30 29.7379 29.7379 30 29.414 30 Z" stroke-linecap="round" />
</g>
<g transform="matrix(13.62 0 0 13.62 588.39 475.64)" clip-path="url(#CLIPPATH_26)"  >
<clipPath id="CLIPPATH_26" >
	<rect transform="matrix(1 0 0 1 -3.55 4.73)" id="clip0_17_464" x="-10" y="-10" rx="0" ry="0" width="20" height="20" />
</clipPath>
<path style="stroke: none; stroke-width: 1; stroke-dasharray: none; stroke-linecap: butt; stroke-dashoffset: 0; stroke-linejoin: miter; stroke-miterlimit: 4; fill: rgb(0,53,65); fill-rule: nonzero; opacity: 1;" vector-effect="non-scaling-stroke"  transform=" translate(-23.55, -15.27)" d="M 26.9695 14.445 L 24.5548 16.8596 C 24.5005 16.9141 24.4359 16.9574 24.3648 16.9868 C 24.2937 17.0163 24.2175 17.0314 24.1405 17.0313 C 24.0636 17.0314 23.9874 17.0163 23.9163 16.9868 C 23.8452 16.9574 23.7806 16.9141 23.7263 16.8596 L 22.4834 15.6168 C 22.2546 15.388 22.2546 15.0171 22.4834 14.7883 C 22.7123 14.5594 23.0831 14.5594 23.312 14.7883 L 24.1405 15.6168 L 26.141 13.6164 C 26.3698 13.3875 26.7406 13.3875 26.9695 13.6164 C 27.1984 13.8453 27.1984 14.2161 26.9695 14.445 Z M 24.7265 10.0001 C 22.2511 10.0001 21.1663 10.9774 20.2187 12.5538 C 19.3335 14.0261 18.1954 14.437 17.7095 14.6126 C 17.4755 14.6967 17.234 14.7837 17.1368 15.0789 C 17.0387 15.3783 17.192 15.7246 17.5133 15.8303 C 18.6455 16.2087 19.606 16.9779 20.2227 18.0001 C 21.1851 19.5948 22.8686 20.5469 24.7265 20.5469 C 27.6344 20.5469 29.9999 18.1814 29.9999 15.2735 C 29.9999 12.3656 27.6344 10.0001 24.7265 10.0001 Z" stroke-linecap="round" />
</g>
<g transform="matrix(0 0 0 0 0 0)"  >
<g style=""   >
</g>
</g>
</svg>