<svg width="120" height="120" viewBox="0 0 120 120" fill="none" xmlns="http://www.w3.org/2000/svg">
    <g clip-path="url(#clip0_21_302)">
        <path d="M113.669 33.3517C115.473 33.7837 117.079 34.8107 118.227 36.2672C119.376 37.7236 120 39.5245 120 41.3793V111.724C120 113.919 119.128 116.024 117.576 117.576C116.024 119.128 113.919 120 111.724 120H8.27586C6.08097 120 3.97597 119.128 2.42394 117.576C0.871919 116.024 0 113.919 0 111.724V41.3793C0 39.1844 0.871919 37.0794 2.42394 35.5274C3.97597 33.9754 6.08097 33.1035 8.27586 33.1035H64.0345L113.669 33.3517Z"
              fill="url(#paint0_linear_21_302)"/>
        <path d="M93.0288 2.6462L99.1343 15.5069C99.4472 16.1872 99.9226 16.78 100.519 17.2332C101.115 17.6864 101.813 17.986 102.552 18.1055L116.096 20.1517C116.959 20.323 117.759 20.7251 118.411 21.3151C119.064 21.9051 119.544 22.661 119.801 23.5023C120.058 24.3436 120.081 25.2389 119.87 26.0927C119.658 26.9465 119.219 27.727 118.599 28.351L108.875 38.1972C108.333 38.7556 107.931 39.4337 107.7 40.1768C107.469 40.9198 107.417 41.7067 107.547 42.4738L109.862 56.4455C110.044 57.294 109.982 58.1766 109.684 58.9914C109.386 59.8063 108.863 60.5203 108.177 61.0509C107.49 61.5815 106.667 61.9072 105.804 61.9903C104.94 62.0734 104.07 61.9106 103.295 61.5207L91.0571 54.8276C90.4165 54.4744 89.6969 54.2892 88.9654 54.2892C88.2339 54.2892 87.5143 54.4744 86.8736 54.8276L74.6378 61.5145C73.8631 61.9044 72.9939 62.0674 72.1306 61.9847C71.2672 61.902 70.4448 61.577 69.7582 61.0472C69.0715 60.5173 68.5486 59.8042 68.2497 58.99C67.9508 58.1758 67.8881 57.2938 68.0688 56.4455L70.3737 42.4738C70.5038 41.7067 70.4514 40.9198 70.2206 40.1768C69.9899 39.4337 69.5872 38.7556 69.0454 38.1972L59.3212 28.351C58.7013 27.727 58.2621 26.9465 58.0505 26.0927C57.8389 25.2389 57.8629 24.3436 58.1197 23.5023C58.3766 22.661 58.8568 21.9051 59.5092 21.3151C60.1617 20.7251 60.9619 20.323 61.8247 20.1517L75.3681 18.1055C76.1073 17.986 76.8057 17.6864 77.4018 17.2332C77.9978 16.78 78.4732 16.1872 78.7861 15.5069L84.8916 2.6462C85.2387 1.85629 85.8083 1.1845 86.5307 0.712827C87.2532 0.241153 88.0974 -0.0100098 88.9602 -0.0100098C89.823 -0.0100098 90.6672 0.241153 91.3897 0.712827C92.1121 1.1845 92.6817 1.85629 93.0288 2.6462Z"
              fill="#F3D55B"/>
        <path d="M88.9654 70.3448C88.4167 70.3448 87.8905 70.1268 87.5025 69.7388C87.1144 69.3508 86.8965 68.8245 86.8965 68.2758V62.0689C86.8965 61.5202 87.1144 60.9939 87.5025 60.6059C87.8905 60.2179 88.4167 59.9999 88.9654 59.9999C89.5142 59.9999 90.0404 60.2179 90.4284 60.6059C90.8164 60.9939 91.0344 61.5202 91.0344 62.0689V68.2758C91.0344 68.8245 90.8164 69.3508 90.4284 69.7388C90.0404 70.1268 89.5142 70.3448 88.9654 70.3448ZM88.9654 78.6206C88.4167 78.6206 87.8905 78.4026 87.5025 78.0146C87.1144 77.6266 86.8965 77.1004 86.8965 76.5517V74.4827C86.8965 73.934 87.1144 73.4077 87.5025 73.0197C87.8905 72.6317 88.4167 72.4137 88.9654 72.4137C89.5142 72.4137 90.0404 72.6317 90.4284 73.0197C90.8164 73.4077 91.0344 73.934 91.0344 74.4827V76.5517C91.0344 77.1004 90.8164 77.6266 90.4284 78.0146C90.0404 78.4026 89.5142 78.6206 88.9654 78.6206ZM97.2413 74.4827C96.6926 74.4827 96.1663 74.2647 95.7783 73.8767C95.3903 73.4887 95.1723 72.9625 95.1723 72.4137V66.2068C95.1723 65.6581 95.3903 65.1319 95.7783 64.7439C96.1663 64.3558 96.6926 64.1379 97.2413 64.1379C97.79 64.1379 98.3163 64.3558 98.7043 64.7439C99.0923 65.1319 99.3103 65.6581 99.3103 66.2068V72.4137C99.3103 72.9625 99.0923 73.4887 98.7043 73.8767C98.3163 74.2647 97.79 74.4827 97.2413 74.4827ZM80.6896 74.4827C80.1408 74.4827 79.6146 74.2647 79.2266 73.8767C78.8386 73.4887 78.6206 72.9625 78.6206 72.4137V66.2068C78.6206 65.6581 78.8386 65.1319 79.2266 64.7439C79.6146 64.3558 80.1408 64.1379 80.6896 64.1379C81.2383 64.1379 81.7645 64.3558 82.1526 64.7439C82.5406 65.1319 82.7585 65.6581 82.7585 66.2068V72.4137C82.7585 72.9625 82.5406 73.4887 82.1526 73.8767C81.7645 74.2647 81.2383 74.4827 80.6896 74.4827Z"
              fill="white"/>
        <path d="M0 103.448H120V82.7585H0V103.448Z" fill="#2C3E50"/>
        <path d="M0 103.448H120V82.7585H0V103.448Z" fill="url(#paint1_linear_21_302)"/>
        <path d="M37.2412 45.5172H16.5515C14.2662 45.5172 12.4136 47.3698 12.4136 49.6551V62.0689C12.4136 64.3543 14.2662 66.2069 16.5515 66.2069H37.2412C39.5265 66.2069 41.3791 64.3543 41.3791 62.0689V49.6551C41.3791 47.3698 39.5265 45.5172 37.2412 45.5172Z"
              fill="white"/>
        <path d="M108.89 38.193C108.347 38.7526 107.943 39.4313 107.71 40.1749C107.476 40.9185 107.42 41.7065 107.545 42.4757L109.862 56.4413C110.045 57.2915 109.984 58.1761 109.685 58.993C109.387 59.8098 108.863 60.5256 108.175 61.0578C107.487 61.5899 106.663 61.9167 105.797 62.0004C104.932 62.0841 104.06 61.9214 103.283 61.5309L91.0554 54.8275C89.752 54.124 88.1796 54.124 86.8761 54.8275L74.6485 61.5309C73.8714 61.9214 72.9998 62.0841 72.1341 62.0004C71.2685 61.9167 70.4441 61.5899 69.7562 61.0578C69.0684 60.5256 68.545 59.8098 68.2465 58.993C67.948 58.1761 67.8865 57.2915 68.0692 56.4413L68.5865 53.3585C99.3106 34.7792 94.5313 9.59988 91.7382 0.97229C92.2844 1.42746 92.723 2.00263 93.021 2.64815L99.1244 15.5171C99.4451 16.1938 99.9251 16.7826 100.523 17.233C101.121 17.6834 101.82 17.9821 102.559 18.1033L116.09 20.1516C116.952 20.3224 117.752 20.7238 118.405 21.3133C119.057 21.9027 119.537 22.6581 119.794 23.4989C120.051 24.3396 120.075 25.2344 119.863 26.0877C119.652 26.9411 119.213 27.7211 118.593 28.3447L108.89 38.193Z"
              fill="#F0C419"/>
    </g>
    <defs>
        <linearGradient id="paint0_linear_21_302" x1="60" y1="33.1035" x2="60" y2="120" gradientUnits="userSpaceOnUse">
            <stop stop-color="#003541"/>
            <stop offset="1" stop-color="#0088A7"/>
        </linearGradient>
        <linearGradient id="paint1_linear_21_302" x1="60" y1="103.448" x2="60" y2="82.7585"
                        gradientUnits="userSpaceOnUse">
            <stop stop-color="#003541"/>
            <stop offset="1" stop-color="#0088A7"/>
        </linearGradient>
        <clipPath id="clip0_21_302">
            <rect width="120" height="120" fill="white"/>
        </clipPath>
    </defs>
</svg>
