<svg width="91" height="90" viewBox="0 0 91 90" fill="none" xmlns="http://www.w3.org/2000/svg">
    <rect x="0.5" width="90" height="90" rx="45" fill="#F2F2F2"/>
    <path d="M59.8573 36.0429C59.293 33.4952 56.8234 31.1614 54.2688 30.6657C52.7126 30.3546 48.371 29.9702 45.4994 30.0018C42.6278 29.9702 38.2862 30.3546 36.73 30.6657C34.1754 31.1614 31.7058 33.4952 31.1416 36.0429C30.8205 37.5897 30.5047 39.6944 30.5 42.5673C30.5047 45.4402 30.8205 47.5443 31.1416 49.0911C31.7058 51.6388 34.1754 53.9726 36.73 54.4683C37.5702 54.6365 39.2225 54.8257 41.0172 54.9593C41.2205 55.2787 41.4408 55.6185 41.6793 55.9788C42.6314 57.4208 43.3602 58.4257 43.9122 59.1259C44.8309 60.2914 46.1685 60.2914 47.0872 59.1259C47.6392 58.4257 48.3675 57.4208 49.3202 55.9788C49.5586 55.6179 49.7783 55.2787 49.9822 54.9593C51.7769 54.8257 53.4292 54.6365 54.27 54.4683C56.8246 53.9726 59.2942 51.6388 59.8584 49.0911C60.1795 47.5443 60.4953 45.4402 60.5 42.5673C60.4953 39.6944 60.1795 37.5903 59.8584 36.0434L59.8573 36.0429ZM47.1558 51.2773C47.0925 51.6341 46.7691 51.9576 46.4123 52.0208C46.1961 52.0566 45.9014 52.0906 45.4988 52.0911C45.0969 52.0911 44.8022 52.0572 44.5854 52.0208C44.2286 51.9576 43.9051 51.6341 43.8419 51.2773C43.8061 51.0611 43.7721 50.7663 43.7716 50.3638C43.7716 49.9618 43.8055 49.6671 43.8419 49.4503C43.9051 49.0935 44.2286 48.77 44.5854 48.7068C44.8016 48.671 45.0963 48.637 45.4988 48.6364C45.9008 48.6364 46.1955 48.6704 46.4123 48.7068C46.7691 48.77 47.0925 49.0935 47.1558 49.4503C47.1915 49.6665 47.2255 49.9613 47.2261 50.3638C47.2261 50.7658 47.1921 51.0605 47.1558 51.2773ZM50.7228 41.6802C50.2705 42.32 49.5926 42.9042 48.5895 43.5177C47.3198 44.3005 47.1165 44.6222 47.1165 45.2521V45.5011C47.1165 46.3941 46.39 47.1206 45.4971 47.1206C44.6041 47.1206 43.8776 46.3941 43.8776 45.5011V44.9239C43.8776 44.181 44.0633 43.5505 44.4454 42.9968C44.8157 42.4601 45.3705 41.9831 46.1937 41.4939C47.7107 40.6015 47.9884 40.1005 47.9884 39.4354C47.9884 38.5999 47.2765 38.0597 46.1756 38.0597C44.9686 38.0597 44.1829 38.6081 43.8401 39.6903C43.6139 40.404 42.953 40.8833 42.196 40.8833C42.1538 40.8833 42.1117 40.8815 42.0695 40.8786C41.5351 40.8399 41.0564 40.5628 40.7564 40.1181C40.4594 39.678 40.3814 39.1372 40.5426 38.6339C40.9117 37.4831 41.6195 36.5257 42.5892 35.8647C43.5712 35.1956 44.8116 34.8423 46.175 34.8423C47.5384 34.8423 48.9053 35.294 49.8756 36.1143C50.874 36.9587 51.4242 38.1224 51.4242 39.3921C51.4242 40.264 51.1951 41.0128 50.7228 41.6802Z"
          fill="#003541"/>
</svg>
