<svg width="50" height="50" viewBox="0 0 50 50" fill="none" xmlns="http://www.w3.org/2000/svg">
    <rect width="50" height="50" rx="25" fill="#F6F6F6"/>
    <rect x="0.5" y="0.5" width="49" height="49" rx="24.5" stroke="#003541" stroke-opacity="0.1"/>
    <path d="M20.9818 23.2909C22.2571 23.2909 23.2909 22.2571 23.2909 20.9818C23.2909 19.7065 22.2571 18.6727 20.9818 18.6727C19.7065 18.6727 18.6727 19.7065 18.6727 20.9818C18.6727 22.2571 19.7065 23.2909 20.9818 23.2909Z" fill="#003541"/>
    <path d="M20.9818 31.3273C22.2571 31.3273 23.2909 30.2935 23.2909 29.0182C23.2909 27.7429 22.2571 26.7091 20.9818 26.7091C19.7065 26.7091 18.6727 27.7429 18.6727 29.0182C18.6727 30.2935 19.7065 31.3273 20.9818 31.3273Z" fill="#003541"/>
    <path d="M29.0182 23.2909C30.2935 23.2909 31.3273 22.2571 31.3273 20.9818C31.3273 19.7065 30.2935 18.6727 29.0182 18.6727C27.7429 18.6727 26.7091 19.7065 26.7091 20.9818C26.7091 22.2571 27.7429 23.2909 29.0182 23.2909Z" fill="#003541"/>
    <path d="M29.0182 31.3273C30.2935 31.3273 31.3273 30.2935 31.3273 29.0182C31.3273 27.7429 30.2935 26.7091 29.0182 26.7091C27.7429 26.7091 26.7091 27.7429 26.7091 29.0182C26.7091 30.2935 27.7429 31.3273 29.0182 31.3273Z" fill="#003541"/>
</svg>
