<svg width="88" height="87" viewBox="0 0 88 87" fill="none" xmlns="http://www.w3.org/2000/svg">
    <rect x="0.5" width="87" height="87" rx="43.5" fill="#F2F2F2"/>
    <path d="M47.6248 29.0021C47.0062 29.0019 46.3971 29.1547 45.8519 29.4469C45.3067 29.7392 44.8423 30.1617 44.5 30.677C44.0546 30.0056 43.4048 29.4955 42.6469 29.2222C41.8889 28.949 41.0631 28.9271 40.2917 29.1599C39.5204 29.3927 38.8446 29.8678 38.3643 30.5148C37.8841 31.1617 37.625 31.9461 37.6255 32.7518C37.6255 36.3078 43.4063 41.9449 44.0688 42.5762C44.1875 42.6886 44.3437 42.7511 44.5 42.7511C44.6562 42.7511 44.8125 42.6886 44.9312 42.5762C45.5937 41.9449 51.3745 36.3078 51.3745 32.7518C51.3745 30.6832 49.6934 29.0021 47.6248 29.0021ZM44.0688 45.4197C43.4063 46.0509 37.6255 51.688 37.6255 55.2503C37.6255 57.3126 39.3066 59 41.3752 59C41.9943 58.999 42.6035 58.845 43.1486 58.5517C43.6938 58.2584 44.158 57.8349 44.5 57.3189C44.842 57.8349 45.3062 58.2584 45.8513 58.5517C46.3965 58.845 47.0057 58.999 47.6248 59C49.6934 59 51.3745 57.3126 51.3745 55.2503C51.3745 51.688 45.5937 46.0509 44.9312 45.4197C44.8152 45.3085 44.6607 45.2464 44.5 45.2464C44.3393 45.2464 44.1848 45.3085 44.0688 45.4197ZM59.4989 40.8763C59.4989 38.8077 57.8178 37.1265 55.7492 37.1265C52.1932 37.1265 46.5561 42.9074 45.9249 43.5636C45.6936 43.8073 45.6936 44.1885 45.9249 44.4323C46.5561 45.0885 52.1932 50.8756 55.7492 50.8756C57.8178 50.8756 59.4989 49.1882 59.4989 47.1258C59.4989 45.8197 58.8302 44.6698 57.8178 44.0011C58.3338 43.6591 58.7573 43.1949 59.0506 42.6497C59.3439 42.1045 59.4979 41.4953 59.4989 40.8763ZM29.501 47.1258C29.501 49.1882 31.1822 50.8756 33.2508 50.8756C36.8068 50.8756 42.4439 45.0885 43.0751 44.4323C43.3063 44.1885 43.3063 43.8073 43.0751 43.5636C42.4439 42.9074 36.8068 37.1265 33.2508 37.1265C31.1822 37.1265 29.501 38.8077 29.501 40.8763C29.502 41.4953 29.656 42.1045 29.9493 42.6497C30.2426 43.1949 30.6661 43.6591 31.1822 44.0011C30.6651 44.3419 30.2408 44.8059 29.9473 45.3513C29.6539 45.8967 29.5005 46.5065 29.501 47.1258Z"
          fill="#003541"/>
</svg>
