<svg width="90" height="90" viewBox="0 0 90 90" fill="none" xmlns="http://www.w3.org/2000/svg">
    <rect width="90" height="90" rx="45" fill="#F2F2F2"/>
    <path fill-rule="evenodd" clip-rule="evenodd" d="M45.3739 30.2187L46.6436 32.4742C46.7102 32.5924 46.8167 32.6663 46.9505 32.6873C47.0843 32.7083 47.2085 32.6711 47.308 32.5794L49.2123 30.8264C49.3296 30.7186 49.4841 30.6849 49.6355 30.7343C49.7867 30.7834 49.892 30.9017 49.9233 31.0576L50.4339 33.5951C50.4607 33.7279 50.539 33.8313 50.6598 33.8926C50.7805 33.9542 50.9099 33.9569 51.0331 33.9005L53.386 32.8222C53.5309 32.7557 53.6882 32.7712 53.8169 32.8652C53.9457 32.9587 54.0093 33.1036 53.9907 33.2614L53.6922 35.8325C53.6765 35.9673 53.7191 36.0896 53.8151 36.1854C53.9109 36.2811 54.0332 36.3238 54.1679 36.3079L56.7388 36.0094C56.8969 35.9912 57.0418 36.0548 57.1353 36.1836C57.2288 36.3123 57.2445 36.4696 57.1783 36.6143L56.0998 38.9671C56.0433 39.0903 56.0462 39.22 56.1076 39.3407C56.1692 39.4613 56.2724 39.5398 56.4051 39.5664L58.9427 40.077C59.0988 40.1084 59.2168 40.2135 59.266 40.365C59.3151 40.5164 59.2814 40.6709 59.1737 40.7879L57.421 42.6923C57.3292 42.7922 57.2917 42.916 57.3127 43.05C57.3339 43.1838 57.408 43.2903 57.5261 43.3566L59.7817 44.6263C59.9202 44.7044 60 44.8411 60 45.0003C60 45.1594 59.9202 45.2959 59.7817 45.3739L57.5261 46.6436C57.408 46.7102 57.3337 46.8164 57.3127 46.9505C57.2917 47.0843 57.3292 47.2085 57.421 47.308L59.1737 49.2123C59.2814 49.3294 59.3151 49.4841 59.2657 49.6355C59.2166 49.7867 59.0985 49.892 58.9427 49.9233L56.4051 50.4339C56.2721 50.4607 56.169 50.5387 56.1074 50.6597C56.0458 50.7805 56.0433 50.9099 56.0998 51.0331L57.1782 53.386C57.2445 53.5306 57.2288 53.6882 57.1352 53.8169C57.0417 53.9453 56.8967 54.0089 56.7388 53.9907L54.1679 53.6922C54.0332 53.6765 53.9107 53.7191 53.8149 53.8149C53.7191 53.9107 53.6765 54.0332 53.6922 54.1679L53.9907 56.7388C54.0089 56.8967 53.9453 57.0417 53.8166 57.1352C53.6882 57.2286 53.5306 57.2443 53.386 57.1782L51.0331 56.0998C50.9099 56.0433 50.7801 56.0462 50.6597 56.1074C50.5387 56.169 50.4604 56.2724 50.4339 56.4054L49.9233 58.9427C49.892 59.0985 49.7865 59.2166 49.6355 59.2657C49.4841 59.3151 49.3294 59.2814 49.2123 59.1737L47.308 57.421C47.2085 57.3292 47.0843 57.2917 46.9505 57.3127C46.8164 57.3339 46.7102 57.408 46.6436 57.5263L45.3739 59.7817C45.2959 59.9202 45.1594 59.9997 45.0003 60C44.8411 60 44.7044 59.9202 44.6263 59.7817L43.3566 57.5263C43.2903 57.4082 43.1838 57.3339 43.05 57.313C42.916 57.2917 42.7922 57.3292 42.6923 57.4211L40.7882 59.1737C40.6711 59.2814 40.5165 59.3151 40.3654 59.266C40.2138 59.2168 40.1084 59.0988 40.077 58.9427L39.5664 56.4051C39.5398 56.2724 39.4613 56.1692 39.3407 56.1076C39.22 56.0462 39.0903 56.0433 38.9671 56.0998L36.6143 57.1782C36.4696 57.2445 36.3123 57.2288 36.1836 57.1353C36.0548 57.0418 35.9912 56.8969 36.0094 56.7388L36.3079 54.1679C36.3238 54.0332 36.2809 53.9109 36.1854 53.8151C36.0896 53.7191 35.9673 53.6765 35.8325 53.6922L33.2614 53.9907C33.1033 54.0093 32.9587 53.9453 32.8648 53.8169C32.7714 53.688 32.7557 53.5304 32.8222 53.3857L33.9005 51.0331C33.9569 50.9099 33.9538 50.7805 33.8926 50.6597C33.831 50.5387 33.7279 50.4607 33.5949 50.4339L31.0576 49.9233C30.9015 49.892 30.7834 49.7867 30.7343 49.6355C30.6849 49.484 30.7188 49.3291 30.8268 49.2121L32.5794 47.308C32.6711 47.2085 32.7083 47.0843 32.6873 46.9505C32.6663 46.8164 32.592 46.7102 32.4739 46.6436L30.2187 45.3739C30.0801 45.2959 30.0003 45.1594 30 45.0003C30 44.8411 30.0798 44.7044 30.2187 44.6263L32.4739 43.3566C32.592 43.2903 32.6661 43.1838 32.6873 43.0498C32.7083 42.916 32.6711 42.7922 32.5794 42.6923L30.8264 40.7882C30.7186 40.6711 30.6849 40.5165 30.734 40.365C30.7832 40.2135 30.9015 40.1084 31.0576 40.077L33.5951 39.5664C33.7279 39.5396 33.831 39.4613 33.8926 39.3407C33.9538 39.2199 33.9569 39.0903 33.9005 38.9671L32.8222 36.6143C32.7557 36.4696 32.7712 36.312 32.8648 36.1834C32.9583 36.0547 33.1033 35.9911 33.2614 36.0094L35.8325 36.3079C35.9669 36.3238 36.0893 36.2809 36.1851 36.1851C36.2809 36.0893 36.3238 35.9669 36.3079 35.8325L36.0094 33.2614C35.9911 33.1033 36.0547 32.9583 36.1834 32.8648C36.312 32.7712 36.4696 32.7557 36.6143 32.8222L38.9671 33.9005C39.0903 33.9569 39.2199 33.9538 39.3403 33.8926C39.4613 33.831 39.5396 33.7279 39.5664 33.5951L40.077 31.0576C40.1084 30.9015 40.2135 30.7832 40.3648 30.734C40.5164 30.6849 40.6709 30.7188 40.7879 30.8264L42.6923 32.5794C42.7922 32.6711 42.916 32.7083 43.0498 32.6873C43.1836 32.6661 43.2903 32.5924 43.3566 32.4742L44.6263 30.2187C44.7044 30.0798 44.8409 30 45.0003 30C45.1594 30.0003 45.2959 30.0801 45.3739 30.2187Z" fill="#003541"/>
    <path fill-rule="evenodd" clip-rule="evenodd" d="M37.3234 49.0173L36.4122 43.8504L37.4276 43.6712L40.1513 46.7486L39.5428 43.2983L40.5125 43.1272L41.4235 48.2945L40.3755 48.4793L37.6988 45.4766L38.2929 48.8464L37.3234 49.0173ZM42.7777 48.0556L41.8666 42.8886L45.697 42.213L45.8514 43.0877L43.0637 43.5792L43.2657 44.7245L45.8595 44.2671L46.0131 45.1369L43.4192 45.5943L43.6671 47.0005L46.5532 46.4918L46.7067 47.363L42.7777 48.0556ZM48.5759 47.0333L46.4315 42.0836L47.4987 41.8953L48.9042 45.307L49.2228 41.5916L50.4633 41.3726L52.0053 44.8221L52.1617 41.0731L53.2119 40.8878L52.8685 46.2763L51.7615 46.4716L50.0518 42.7899L49.7067 46.8338L48.5759 47.0333Z" fill="white"/>
</svg>
