<svg width="90" height="90" viewBox="0 0 90 90" fill="none" xmlns="http://www.w3.org/2000/svg">
    <rect width="90" height="90" rx="45" fill="white"/>
    <rect x="0.5" y="0.5" width="88" height="88" rx="44" stroke="#003541" stroke-opacity="0.1"/>
    <g clip-path="url(#clip0_17_464)">
        <mask id="mask0_17_464" style="mask-type:luminance" maskUnits="userSpaceOnUse" x="10" y="10" width="20"
              height="20">
            <path d="M10 10.0001H29.9999V30H10V10.0001Z" fill="white"/>
        </mask>
        <g mask="url(#mask0_17_464)">
            <path d="M13.5156 14.6876C12.223 14.6876 11.1719 13.6364 11.1719 12.3438C11.1719 11.0512 12.223 10.0001 13.5156 10.0001C14.8082 10.0001 15.8594 11.0512 15.8594 12.3438C15.8594 13.6364 14.8082 14.6876 13.5156 14.6876Z"
                  fill="#003541"/>
            <path d="M26.4844 26.4844C25.1918 26.4844 24.1406 25.4332 24.1406 24.1406C24.1406 22.848 25.1918 21.7969 26.4844 21.7969C27.777 21.7969 28.8281 22.848 28.8281 24.1406C28.8281 25.4332 27.777 26.4844 26.4844 26.4844Z"
                  fill="#003541"/>
            <path d="M15.8668 25.2101C15.8668 25.5334 15.6007 25.847 15.2774 25.847C14.9535 25.847 14.6875 25.6364 14.6875 25.3125C14.6875 24.7214 15.0028 24.274 15.472 24.1069C15.7031 24.0233 15.8594 23.8019 15.8594 23.5547C15.8594 23.2314 15.5967 22.9688 15.2734 22.9688C14.9501 22.9688 14.6875 23.2314 14.6875 23.5547C14.6875 23.8786 14.4254 24.1406 14.1016 24.1406C13.7777 24.1406 13.5156 23.8786 13.5156 23.5547C13.5156 22.5854 14.3041 21.7969 15.2734 21.7969C16.2427 21.7969 17.0312 22.5854 17.0312 23.5547C17.0312 24.2946 16.5631 24.9601 15.8668 25.2101ZM15.2734 27.6563C14.9498 27.6563 14.6875 27.3939 14.6875 27.0703C14.6875 26.7466 14.9498 26.4844 15.2734 26.4844C15.597 26.4844 15.8594 26.7466 15.8594 27.0703C15.8594 27.3939 15.597 27.6563 15.2734 27.6563ZM22.4717 24.1641C21.3479 23.7904 20.3923 23.0243 19.7812 22.0075C18.8199 20.4082 17.1348 19.4532 15.2734 19.4532C12.3655 19.4532 10 21.8187 10 24.7266C10 27.6345 12.3655 30 15.2734 30C17.1313 30 18.8148 29.0479 19.7772 27.4531C20.3935 26.4312 21.3554 25.661 22.49 25.2822C22.7292 25.2027 22.8814 24.9755 22.8814 24.7231C22.8814 24.4714 22.7109 24.2442 22.4717 24.1641Z"
                  fill="#003541"/>
            <path d="M16.4453 18.2032H10.5859C10.2621 18.2032 10 17.9411 10 17.6173C10 16.0019 11.3143 14.6876 12.9297 14.6876H14.1016C15.7169 14.6876 17.0312 16.0019 17.0312 17.6173C17.0312 17.9411 16.7692 18.2032 16.4453 18.2032Z"
                  fill="#003541"/>
            <path d="M29.414 30H23.5547C23.2308 30 22.9688 29.7379 22.9688 29.4141C22.9688 27.7987 24.2831 26.4844 25.8984 26.4844H27.0703C28.6856 26.4844 30 27.7987 30 29.4141C30 29.7379 29.7379 30 29.414 30Z"
                  fill="#003541"/>
            <path d="M26.9695 14.445L24.5548 16.8596C24.5005 16.9141 24.4359 16.9574 24.3648 16.9868C24.2937 17.0163 24.2175 17.0314 24.1405 17.0313C24.0636 17.0314 23.9874 17.0163 23.9163 16.9868C23.8452 16.9574 23.7806 16.9141 23.7263 16.8596L22.4834 15.6168C22.2546 15.388 22.2546 15.0171 22.4834 14.7883C22.7123 14.5594 23.0831 14.5594 23.312 14.7883L24.1405 15.6168L26.141 13.6164C26.3698 13.3875 26.7406 13.3875 26.9695 13.6164C27.1984 13.8453 27.1984 14.2161 26.9695 14.445ZM24.7265 10.0001C22.2511 10.0001 21.1663 10.9774 20.2187 12.5538C19.3335 14.0261 18.1954 14.437 17.7095 14.6126C17.4755 14.6967 17.234 14.7837 17.1368 15.0789C17.0387 15.3783 17.192 15.7246 17.5133 15.8303C18.6455 16.2087 19.606 16.9779 20.2227 18.0001C21.1851 19.5948 22.8686 20.5469 24.7265 20.5469C27.6344 20.5469 29.9999 18.1814 29.9999 15.2735C29.9999 12.3656 27.6344 10.0001 24.7265 10.0001Z"
                  fill="#003541"/>
        </g>
    </g>
    <defs>
        <clipPath id="clip0_17_464">
            <rect width="20" height="20" fill="white" transform="translate(10 10)"/>
        </clipPath>
    </defs>
</svg>
