<svg width="40" height="40" viewBox="0 0 40 40" fill="none" xmlns="http://www.w3.org/2000/svg">
    <rect width="40" height="40" rx="20" fill="white"/>
    <rect x="0.5" y="0.5" width="39" height="39" rx="19.5" stroke="#003541" stroke-opacity="0.1"/>
    <path fill-rule="evenodd" clip-rule="evenodd" d="M29.9999 18.2464V15.4214H28.7892V14.2107H26.3677V13H24.7535V14.2107H22.332V15.4214H21.1213V20.6678H22.332V21.8785H24.7535V23.8964H23.9463V22.6857H21.1213V25.5107H22.332V26.7214H24.7535V27.9321H26.3677V26.7214H28.7892V25.5107H29.9999V20.2643H28.7892V19.0536H26.3677V17.0357H27.1749V18.2464H29.9999ZM24.7535 17.0357V19.0535H23.9464V17.0357H24.7535ZM26.3678 21.8785V23.8964H27.1749V21.8785H26.3678Z" fill="#003541"/>
    <path fill-rule="evenodd" clip-rule="evenodd" d="M10 26.7214V14.2107H17.6678V15.4214H18.8785V20.6678H17.6678V21.475H18.8785V26.7214H16.0536V23.0892H12.825V26.7214H10ZM12.825 20.2642V17.0357H16.0535V20.2642H12.825Z" fill="#003541"/>
</svg>
