<svg width="90" height="90" viewBox="0 0 90 90" fill="none" xmlns="http://www.w3.org/2000/svg">
    <rect width="90" height="90" rx="45" fill="#F2F2F2"/>
    <path fill-rule="evenodd" clip-rule="evenodd" d="M46.5163 45.5178H56.6166C56.7126 45.5179 56.8067 45.5447 56.8884 45.5952C56.9701 45.6457 57.0361 45.718 57.079 45.8039L58.6307 48.9072C58.6701 48.986 58.6887 49.0736 58.6847 49.1617C58.6808 49.2497 58.6544 49.3353 58.6081 49.4103C58.5617 49.4853 58.497 49.5472 58.42 49.5901C58.3431 49.6331 58.2564 49.6556 58.1683 49.6556H48.068C47.972 49.6556 47.8779 49.6288 47.7962 49.5783C47.7145 49.5278 47.6485 49.4555 47.6056 49.3696L46.0539 46.2663C46.0145 46.1874 45.9959 46.0998 45.9999 46.0118C46.0038 45.9237 46.0302 45.8381 46.0765 45.7632C46.1229 45.6882 46.1876 45.6263 46.2646 45.5833C46.3415 45.5404 46.4282 45.5178 46.5163 45.5178ZM40.6993 42.316C40.6397 42.153 40.6275 41.9764 40.6639 41.8068L41.1258 39.0127C41.1518 38.8593 41.1413 38.7018 41.0951 38.5532C41.0489 38.4046 40.9683 38.2689 40.8599 38.1572L38.9162 36.1877C38.7923 36.0629 38.7046 35.9068 38.6623 35.7361C38.62 35.5653 38.6248 35.3864 38.6762 35.2182C38.7276 35.0499 38.8236 34.8988 38.954 34.7808C39.0844 34.6628 39.2444 34.5824 39.4169 34.5481L42.125 34.139C42.2726 34.1153 42.4122 34.0558 42.5314 33.9656C42.6506 33.8754 42.7459 33.7573 42.8088 33.6217L44.0299 31.0475C44.0996 30.8901 44.2135 30.7564 44.3577 30.6625C44.502 30.5686 44.6704 30.5186 44.8425 30.5186C45.0146 30.5186 45.183 30.5686 45.3273 30.6625C45.4715 30.7564 45.5854 30.8901 45.655 31.0475L46.8762 33.6217C46.9391 33.7573 47.0344 33.8754 47.1536 33.9656C47.2728 34.0558 47.4123 34.1153 47.56 34.139L50.2681 34.5486C50.4406 34.5829 50.6006 34.6633 50.731 34.7813C50.8615 34.8992 50.9575 35.0504 51.0089 35.2186C51.0602 35.3868 51.065 35.5658 51.0227 35.7365C50.9805 35.9073 50.8927 36.0633 50.7688 36.1881L48.8261 38.1572C48.7177 38.2689 48.6371 38.4046 48.591 38.5532C48.5448 38.7018 48.5343 38.8593 48.5603 39.0127L49.0211 41.8057C49.0576 41.9754 49.0453 42.152 48.9858 42.315C48.9262 42.478 48.8217 42.6209 48.6844 42.7271C48.547 42.8332 48.3825 42.8984 48.2097 42.915C48.0369 42.9316 47.863 42.8991 47.7079 42.821L45.2604 41.4835C45.1324 41.413 44.9887 41.3761 44.8425 41.3761C44.6964 41.3761 44.5526 41.413 44.4246 41.4835L41.9771 42.8221C41.8221 42.9001 41.6481 42.9327 41.4754 42.916C41.3026 42.8994 41.138 42.8342 41.0007 42.728C40.8634 42.6219 40.7589 42.479 40.6993 42.316ZM33.1411 40.7424C33.118 40.6682 33.0778 40.6004 33.0236 40.5447L32.0523 39.5621C31.9902 39.4997 31.9463 39.4217 31.9251 39.3363C31.9039 39.2509 31.9063 39.1613 31.9319 39.0772C31.9576 38.9931 32.0057 38.9175 32.071 38.8585C32.1362 38.7995 32.2163 38.7593 32.3026 38.7423L33.6567 38.5354C33.7305 38.5236 33.8003 38.4938 33.8599 38.4487C33.9195 38.4036 33.9671 38.3446 33.9986 38.2767L34.611 36.9914C34.6457 36.9126 34.7027 36.8455 34.7748 36.7985C34.847 36.7514 34.9313 36.7264 35.0175 36.7264C35.1037 36.7264 35.188 36.7514 35.2601 36.7985C35.3323 36.8455 35.3892 36.9126 35.424 36.9914L36.0343 38.2773C36.0658 38.3451 36.1134 38.4041 36.173 38.4492C36.2326 38.4943 36.3024 38.5241 36.3762 38.5359L37.7303 38.7428C37.8166 38.7599 37.8966 38.8001 37.9619 38.8591C38.0271 38.9181 38.0751 38.9937 38.1008 39.0778C38.1265 39.1619 38.1289 39.2514 38.1077 39.3368C38.0865 39.4222 38.0426 39.5002 37.9806 39.5626L37.0093 40.5453C36.9551 40.601 36.9148 40.6688 36.8917 40.743C36.8686 40.8172 36.8634 40.8959 36.8764 40.9725L37.107 42.369C37.1251 42.4538 37.1189 42.5421 37.089 42.6235C37.0592 42.705 37.0069 42.7763 36.9382 42.8294C36.8696 42.8824 36.7873 42.9149 36.701 42.9232C36.6146 42.9316 36.5277 42.9153 36.4502 42.8763L35.2264 42.2076C35.1624 42.1724 35.0905 42.154 35.0175 42.154C34.9444 42.154 34.8725 42.1724 34.8085 42.2076L33.5827 42.8758C33.5052 42.9147 33.4182 42.931 33.3319 42.9226C33.2456 42.9143 33.1633 42.8817 33.0947 42.8287C33.026 42.7757 32.9738 42.7043 32.9439 42.6229C32.914 42.5415 32.9078 42.4532 32.9258 42.3684L33.1565 40.9719C33.1695 40.8953 33.1642 40.8167 33.1411 40.7424ZM53.6529 38.2767L54.2632 36.9898C54.2978 36.9105 54.3549 36.8429 54.4274 36.7955C54.4999 36.7482 54.5847 36.723 54.6713 36.7232C54.7579 36.7234 54.8426 36.7488 54.9149 36.7965C54.9872 36.8442 55.044 36.912 55.0783 36.9915L55.6887 38.2773C55.7201 38.3451 55.7677 38.4041 55.8273 38.4492C55.887 38.4943 55.9567 38.5241 56.0306 38.5359L57.3847 38.7428C57.4709 38.7599 57.551 38.8001 57.6162 38.8591C57.6814 38.9181 57.7295 38.9937 57.7551 39.0778C57.7808 39.1619 57.7832 39.2514 57.762 39.3368C57.7409 39.4222 57.697 39.5002 57.635 39.5626L56.6636 40.5453C56.6094 40.601 56.5692 40.6688 56.5461 40.743C56.523 40.8172 56.5177 40.8959 56.5307 40.9725L56.7614 42.369C56.7795 42.4538 56.7732 42.5421 56.7434 42.6235C56.7135 42.705 56.6612 42.7763 56.5926 42.8294C56.5239 42.8824 56.4417 42.9149 56.3553 42.9232C56.269 42.9316 56.182 42.9153 56.1045 42.8763L54.8808 42.2076C54.8167 42.1724 54.7448 42.154 54.6718 42.154C54.5987 42.154 54.5269 42.1724 54.4628 42.2076L53.237 42.8758C53.1595 42.9147 53.0726 42.931 52.9862 42.9226C52.8999 42.9143 52.8177 42.8817 52.749 42.8287C52.6804 42.7757 52.6281 42.7043 52.5982 42.6229C52.5684 42.5415 52.5621 42.4532 52.5802 42.3684L52.8109 40.9719C52.8238 40.8953 52.8186 40.8167 52.7955 40.7424C52.7724 40.6682 52.7321 40.6004 52.6779 40.5447L51.7066 39.562C51.6445 39.4996 51.6005 39.4216 51.5794 39.3362C51.5582 39.2508 51.5605 39.1613 51.5862 39.0771C51.6119 38.993 51.66 38.9174 51.7252 38.8584C51.7905 38.7994 51.8706 38.7593 51.9569 38.7422L53.311 38.5353C53.3848 38.5235 53.4546 38.4937 53.5142 38.4486C53.5738 38.4035 53.6214 38.3445 53.6529 38.2767ZM41.4749 32.0057C41.3975 32.0484 41.3104 32.0706 41.222 32.07C41.1263 32.0696 41.0327 32.0427 40.9514 31.9922C40.8701 31.9417 40.8044 31.8696 40.7617 31.7841L40.2444 30.7496C40.1847 30.627 40.1758 30.4858 40.2196 30.3567C40.2634 30.2276 40.3564 30.121 40.4784 30.06C40.6004 29.9991 40.7415 29.9888 40.8711 30.0313C41.0006 30.0739 41.1082 30.1658 41.1703 30.2872L41.6875 31.3217C41.7271 31.4007 41.7457 31.4886 41.7416 31.5769C41.7375 31.6652 41.7108 31.751 41.6641 31.8261C41.6174 31.9011 41.5523 31.963 41.4749 32.0057ZM39.6702 32.5873C39.6702 32.7244 39.6158 32.856 39.5188 32.953C39.4218 33.0499 39.2903 33.1044 39.1531 33.1044C39.016 33.1044 38.8845 33.05 38.7874 32.953L38.2702 32.4358C38.1758 32.3383 38.1235 32.2075 38.1247 32.0718C38.1258 31.9361 38.1802 31.8063 38.2761 31.7103C38.3721 31.6144 38.5019 31.56 38.6376 31.5588C38.7733 31.5577 38.9041 31.61 39.0016 31.7044L39.5188 32.2216C39.6158 32.3186 39.6702 32.4501 39.6702 32.5873ZM48.7367 31.9935C48.6545 32.0441 48.5597 32.0706 48.4631 32.07C48.3747 32.0705 48.2877 32.0484 48.2103 32.0056C48.1329 31.9629 48.0678 31.901 48.0211 31.826C47.9744 31.7509 47.9478 31.6651 47.9436 31.5768C47.9395 31.4885 47.9581 31.4007 47.9976 31.3216L48.5149 30.2872C48.5764 30.1641 48.6843 30.0705 48.8148 30.0269C48.9452 29.9832 49.0877 29.9931 49.2109 30.0543C49.3341 30.1155 49.428 30.223 49.4721 30.3533C49.5161 30.4837 49.5067 30.6262 49.4459 30.7496L48.9286 31.784C48.8855 31.8704 48.819 31.943 48.7367 31.9935ZM51.4149 32.4357L50.8977 32.953C50.8339 33.019 50.7537 33.0669 50.6653 33.0917C50.5769 33.1164 50.4835 33.1173 50.3947 33.094C50.3058 33.0708 50.2248 33.0243 50.1599 32.9594C50.0949 32.8945 50.0484 32.8134 50.0252 32.7246C50.0019 32.6358 50.0027 32.5424 50.0275 32.454C50.0523 32.3656 50.1002 32.2853 50.1663 32.2216L50.6835 31.7043C50.7473 31.6383 50.8275 31.5904 50.9159 31.5656C51.0043 31.5408 51.0977 31.54 51.1865 31.5633C51.2754 31.5865 51.3564 31.633 51.4213 31.6979C51.4863 31.7628 51.5328 31.8438 51.556 31.9327C51.5793 32.0215 51.5784 32.1149 51.5536 32.2033C51.5289 32.2917 51.481 32.3719 51.4149 32.4357ZM31.517 49.6555H41.6172C41.713 49.6559 41.807 49.6296 41.8886 49.5794C41.9702 49.5292 42.0362 49.4573 42.0791 49.3716C42.4861 48.5565 43.6308 46.2682 43.6308 46.2682C43.6707 46.1894 43.6897 46.1016 43.686 46.0133C43.6823 45.925 43.656 45.8391 43.6097 45.7638C43.5634 45.6886 43.4985 45.6264 43.4214 45.5834C43.3442 45.5403 43.2573 45.5177 43.1689 45.5178H33.0686C32.9725 45.5178 32.8784 45.5446 32.7967 45.5951C32.7151 45.6456 32.6491 45.7179 32.6062 45.8038L31.0546 48.9071C31.0152 48.986 30.9966 49.0736 31.0005 49.1616C31.0045 49.2496 31.0309 49.3352 31.0772 49.4102C31.1235 49.4852 31.1882 49.5471 31.2652 49.59C31.3422 49.6329 31.4288 49.6555 31.517 49.6555ZM33.4638 59.9999H44.3254V47.1915L42.8622 50.121C42.7764 50.2928 42.6443 50.4371 42.4808 50.5377C42.3172 50.6382 42.1288 50.691 41.9368 50.69H32.9465V59.4827C32.9465 59.5506 32.9599 59.6179 32.9859 59.6806C33.0119 59.7434 33.05 59.8004 33.098 59.8485C33.146 59.8965 33.2031 59.9346 33.2658 59.9606C33.3286 59.9866 33.3958 59.9999 33.4638 59.9999ZM56.7386 59.4828V50.69H47.7483C47.556 50.6908 47.3674 50.6376 47.2038 50.5365C47.0402 50.4354 46.9083 50.2904 46.823 50.118L45.3598 47.1916V60H56.2214C56.3586 60 56.4901 59.9455 56.5871 59.8485C56.6841 59.7515 56.7386 59.6199 56.7386 59.4828Z" fill="#003541"/>
</svg>
