<svg width="60" height="106" viewBox="0 0 60 106" fill="none" xmlns="http://www.w3.org/2000/svg">
    <g filter="url(#filter0_ii_4056_236)">
        <path d="M30 1.5459C30.2313 1.5459 30.4921 1.60139 30.915 1.79297C31.137 1.89352 31.383 2.02094 31.6738 2.18164L32.7021 2.76855L52.2314 14.0439C53.0362 14.5086 53.5746 14.8206 53.9707 15.1045C54.2538 15.3074 54.4252 15.4692 54.542 15.6221L54.6426 15.7725C54.7582 15.9728 54.8402 16.2267 54.8857 16.6885C54.9335 17.1734 54.9346 17.7955 54.9346 18.7246V41.2754C54.9346 42.2045 54.9335 42.8266 54.8857 43.3115C54.8516 43.6578 54.7965 43.887 54.7227 44.0645L54.6426 44.2275C54.5269 44.4278 54.3478 44.6252 53.9707 44.8955C53.5746 45.1794 53.0362 45.4914 52.2314 45.9561L32.7021 57.2314C31.8976 57.6959 31.3588 58.006 30.915 58.207C30.4921 58.3986 30.2313 58.4541 30 58.4541L29.8193 58.4424C29.6285 58.4177 29.4023 58.3508 29.085 58.207C28.863 58.1065 28.617 57.9791 28.3262 57.8184L27.2979 57.2314L7.76855 45.9561C6.96378 45.4914 6.42537 45.1794 6.0293 44.8955C5.74622 44.6926 5.57476 44.5308 5.45801 44.3779L5.35742 44.2275C5.24178 44.0272 5.15981 43.7733 5.11426 43.3115C5.06646 42.8266 5.06543 42.2045 5.06543 41.2754L5.06543 18.7246C5.06543 17.7955 5.06646 17.1734 5.11426 16.6885C5.14841 16.3422 5.20345 16.113 5.27734 15.9355L5.35742 15.7725C5.47306 15.5722 5.65219 15.3748 6.0293 15.1045C6.42537 14.8206 6.96378 14.5086 7.76855 14.0439L27.2979 2.76855C28.1024 2.30407 28.6412 1.99401 29.085 1.79297C29.5079 1.60139 29.7687 1.5459 30 1.5459Z"
              stroke="white" stroke-width="2.09302"/>
    </g>
    <g filter="url(#filter1_ii_4056_236)">
        <path d="M29.2532 9.39584C29.6468 9.16861 29.8436 9.055 30.0597 9.055C30.2758 9.055 30.4726 9.16861 30.8661 9.39584L47.5515 19.0291C47.9451 19.2564 48.1419 19.37 48.2499 19.5571C48.358 19.7443 48.358 19.9715 48.358 20.426V39.6926C48.358 40.147 48.358 40.3743 48.2499 40.5614C48.1419 40.7485 47.9451 40.8622 47.5515 41.0894L30.8661 50.7227C30.4726 50.9499 30.2758 51.0635 30.0597 51.0635C29.8436 51.0635 29.6468 50.9499 29.2532 50.7227L12.5679 41.0894C12.1743 40.8622 11.9775 40.7485 11.8695 40.5614C11.7614 40.3743 11.7614 40.147 11.7614 39.6926L11.7614 20.426C11.7614 19.9715 11.7614 19.7443 11.8695 19.5571C11.9775 19.37 12.1743 19.2564 12.5679 19.0291L29.2532 9.39584Z"
              fill="white"/>
    </g>
    <path d="M29.8056 23.5605C29.9294 23.489 29.9913 23.4533 30.0593 23.4533C30.1272 23.4533 30.1891 23.489 30.3129 23.5605L35.5606 26.5902C35.6843 26.6617 35.7462 26.6974 35.7802 26.7563C35.8142 26.8151 35.8142 26.8866 35.8142 27.0295V33.089C35.8142 33.2319 35.8142 33.3034 35.7802 33.3623C35.7462 33.4211 35.6843 33.4568 35.5606 33.5283L30.3129 36.558C30.1891 36.6295 30.1272 36.6652 30.0593 36.6652C29.9913 36.6652 29.9294 36.6295 29.8056 36.558L24.558 33.5283C24.4342 33.4568 24.3723 33.4211 24.3383 33.3623C24.3044 33.3034 24.3044 33.2319 24.3044 33.089V27.0295C24.3044 26.8866 24.3044 26.8151 24.3383 26.7563C24.3723 26.6974 24.4342 26.6617 24.558 26.5902L29.8056 23.5605Z"
          fill="#003642"/>
    <path d="M26.009 87.3917V103.065H22.9152V90.9581L19.1984 92.1397V89.7012L25.676 87.3917H26.009ZM32.9162 93.9014H34.5705C35.1004 93.9014 35.5373 93.8119 35.881 93.6329C36.2248 93.4467 36.479 93.1889 36.6437 92.8594C36.8156 92.5228 36.9016 92.1325 36.9016 91.6885C36.9016 91.2875 36.8228 90.933 36.6652 90.6251C36.5148 90.31 36.2821 90.0665 35.967 89.8946C35.6519 89.7156 35.2544 89.626 34.7746 89.626C34.395 89.626 34.0441 89.7012 33.7219 89.8516C33.3996 90.002 33.1418 90.2133 32.9484 90.4854C32.7551 90.7575 32.6584 91.087 32.6584 91.4737H29.5539C29.5539 90.6143 29.7831 89.8659 30.2414 89.2286C30.7069 88.5912 31.3299 88.0935 32.1105 87.7354C32.8911 87.3773 33.7505 87.1983 34.6887 87.1983C35.7486 87.1983 36.676 87.3702 37.4709 87.7139C38.2658 88.0505 38.8853 88.5482 39.3293 89.2071C39.7733 89.8659 39.9953 90.6824 39.9953 91.6563C39.9953 92.1505 39.8807 92.6303 39.6516 93.0958C39.4224 93.5541 39.093 93.9695 38.6633 94.3419C38.2407 94.7071 37.7251 95.0007 37.1164 95.2227C36.5077 95.4376 35.8238 95.545 35.0646 95.545H32.9162V93.9014ZM32.9162 96.254V94.6534H35.0646C35.9169 94.6534 36.6652 94.7501 37.3098 94.9434C37.9543 95.1368 38.495 95.4161 38.9318 95.7813C39.3687 96.1394 39.6981 96.5655 39.9201 97.0596C40.1421 97.5466 40.2531 98.0873 40.2531 98.6817C40.2531 99.4122 40.1135 100.064 39.8342 100.637C39.5549 101.203 39.161 101.682 38.6525 102.076C38.1512 102.47 37.564 102.771 36.8908 102.979C36.2176 103.179 35.4836 103.279 34.6887 103.279C34.0298 103.279 33.3817 103.19 32.7443 103.011C32.1141 102.825 31.5412 102.549 31.0256 102.184C30.5171 101.811 30.1089 101.346 29.801 100.787C29.5002 100.221 29.3498 99.5518 29.3498 98.7784H32.4543C32.4543 99.1794 32.5546 99.5375 32.7551 99.8526C32.9556 100.168 33.2313 100.415 33.5822 100.594C33.9403 100.773 34.3378 100.862 34.7746 100.862C35.2687 100.862 35.6913 100.773 36.0422 100.594C36.4003 100.408 36.6724 100.15 36.8586 99.8204C37.0519 99.4838 37.1486 99.0935 37.1486 98.6495C37.1486 98.0766 37.0448 97.6182 36.8371 97.2745C36.6294 96.9236 36.3322 96.6658 35.9455 96.501C35.5588 96.3363 35.1004 96.254 34.5705 96.254H32.9162Z"
          fill="white"/>
    <defs>
        <filter id="filter0_ii_4056_236" x="4.01929" y="-0.198651" width="51.9614" height="60.3973"
                filterUnits="userSpaceOnUse" color-interpolation-filters="sRGB">
            <feFlood flood-opacity="0" result="BackgroundImageFix"/>
            <feBlend mode="normal" in="SourceGraphic" in2="BackgroundImageFix" result="shape"/>
            <feColorMatrix in="SourceAlpha" type="matrix" values="0 0 0 0 0 0 0 0 0 0 0 0 0 0 0 0 0 0 127 0"
                           result="hardAlpha"/>
            <feOffset dy="0.697674"/>
            <feGaussianBlur stdDeviation="0.348837"/>
            <feComposite in2="hardAlpha" operator="arithmetic" k2="-1" k3="1"/>
            <feColorMatrix type="matrix" values="0 0 0 0 1 0 0 0 0 1 0 0 0 0 1 0 0 0 0.5 0"/>
            <feBlend mode="normal" in2="shape" result="effect1_innerShadow_4056_236"/>
            <feColorMatrix in="SourceAlpha" type="matrix" values="0 0 0 0 0 0 0 0 0 0 0 0 0 0 0 0 0 0 127 0"
                           result="hardAlpha"/>
            <feOffset dy="-0.697674"/>
            <feGaussianBlur stdDeviation="0.348837"/>
            <feComposite in2="hardAlpha" operator="arithmetic" k2="-1" k3="1"/>
            <feColorMatrix type="matrix" values="0 0 0 0 0 0 0 0 0 0 0 0 0 0 0 0 0 0 0.5 0"/>
            <feBlend mode="normal" in2="effect1_innerShadow_4056_236" result="effect2_innerShadow_4056_236"/>
        </filter>
        <filter id="filter1_ii_4056_236" x="11.7615" y="8.35732" width="36.5964" height="43.4039"
                filterUnits="userSpaceOnUse" color-interpolation-filters="sRGB">
            <feFlood flood-opacity="0" result="BackgroundImageFix"/>
            <feBlend mode="normal" in="SourceGraphic" in2="BackgroundImageFix" result="shape"/>
            <feColorMatrix in="SourceAlpha" type="matrix" values="0 0 0 0 0 0 0 0 0 0 0 0 0 0 0 0 0 0 127 0"
                           result="hardAlpha"/>
            <feOffset dy="0.697674"/>
            <feGaussianBlur stdDeviation="0.697674"/>
            <feComposite in2="hardAlpha" operator="arithmetic" k2="-1" k3="1"/>
            <feColorMatrix type="matrix" values="0 0 0 0 1 0 0 0 0 1 0 0 0 0 1 0 0 0 1 0"/>
            <feBlend mode="normal" in2="shape" result="effect1_innerShadow_4056_236"/>
            <feColorMatrix in="SourceAlpha" type="matrix" values="0 0 0 0 0 0 0 0 0 0 0 0 0 0 0 0 0 0 127 0"
                           result="hardAlpha"/>
            <feOffset dy="-0.697674"/>
            <feGaussianBlur stdDeviation="0.697674"/>
            <feComposite in2="hardAlpha" operator="arithmetic" k2="-1" k3="1"/>
            <feColorMatrix type="matrix" values="0 0 0 0 0 0 0 0 0 0 0 0 0 0 0 0 0 0 0.6 0"/>
            <feBlend mode="normal" in2="effect1_innerShadow_4056_236" result="effect2_innerShadow_4056_236"/>
        </filter>
    </defs>
</svg>
