<svg width="60" height="106" viewBox="0 0 60 106" fill="none" xmlns="http://www.w3.org/2000/svg">
    <g filter="url(#filter0_ii_4056_236)">
        <path d="M30 1.5459C30.2313 1.5459 30.4921 1.60139 30.915 1.79297C31.137 1.89352 31.383 2.02094 31.6738 2.18164L32.7021 2.76855L52.2314 14.0439C53.0362 14.5086 53.5746 14.8206 53.9707 15.1045C54.2538 15.3074 54.4252 15.4692 54.542 15.6221L54.6426 15.7725C54.7582 15.9728 54.8402 16.2267 54.8857 16.6885C54.9335 17.1734 54.9346 17.7955 54.9346 18.7246V41.2754C54.9346 42.2045 54.9335 42.8266 54.8857 43.3115C54.8516 43.6578 54.7965 43.887 54.7227 44.0645L54.6426 44.2275C54.5269 44.4278 54.3478 44.6252 53.9707 44.8955C53.5746 45.1794 53.0362 45.4914 52.2314 45.9561L32.7021 57.2314C31.8976 57.6959 31.3588 58.006 30.915 58.207C30.4921 58.3986 30.2313 58.4541 30 58.4541L29.8193 58.4424C29.6285 58.4177 29.4023 58.3508 29.085 58.207C28.863 58.1065 28.617 57.9791 28.3262 57.8184L27.2979 57.2314L7.76855 45.9561C6.96378 45.4914 6.42537 45.1794 6.0293 44.8955C5.74622 44.6926 5.57476 44.5308 5.45801 44.3779L5.35742 44.2275C5.24178 44.0272 5.15981 43.7733 5.11426 43.3115C5.06646 42.8266 5.06543 42.2045 5.06543 41.2754L5.06543 18.7246C5.06543 17.7955 5.06646 17.1734 5.11426 16.6885C5.14841 16.3422 5.20345 16.113 5.27734 15.9355L5.35742 15.7725C5.47306 15.5722 5.65219 15.3748 6.0293 15.1045C6.42537 14.8206 6.96378 14.5086 7.76855 14.0439L27.2979 2.76855C28.1024 2.30407 28.6412 1.99401 29.085 1.79297C29.5079 1.60139 29.7687 1.5459 30 1.5459Z"
              stroke="white" stroke-width="2.09302"/>
    </g>
    <g filter="url(#filter1_ii_4056_236)">
        <path d="M29.2532 9.39584C29.6468 9.16861 29.8436 9.055 30.0597 9.055C30.2758 9.055 30.4726 9.16861 30.8661 9.39584L47.5515 19.0291C47.9451 19.2564 48.1419 19.37 48.2499 19.5571C48.358 19.7443 48.358 19.9715 48.358 20.426V39.6926C48.358 40.147 48.358 40.3743 48.2499 40.5614C48.1419 40.7485 47.9451 40.8622 47.5515 41.0894L30.8661 50.7227C30.4726 50.9499 30.2758 51.0635 30.0597 51.0635C29.8436 51.0635 29.6468 50.9499 29.2532 50.7227L12.5679 41.0894C12.1743 40.8622 11.9775 40.7485 11.8695 40.5614C11.7614 40.3743 11.7614 40.147 11.7614 39.6926L11.7614 20.426C11.7614 19.9715 11.7614 19.7443 11.8695 19.5571C11.9775 19.37 12.1743 19.2564 12.5679 19.0291L29.2532 9.39584Z"
              fill="white"/>
    </g>
    <path d="M29.8056 23.5605C29.9294 23.489 29.9913 23.4533 30.0593 23.4533C30.1272 23.4533 30.1891 23.489 30.3129 23.5605L35.5606 26.5902C35.6843 26.6617 35.7462 26.6974 35.7802 26.7563C35.8142 26.8151 35.8142 26.8866 35.8142 27.0295V33.089C35.8142 33.2319 35.8142 33.3034 35.7802 33.3623C35.7462 33.4211 35.6843 33.4568 35.5606 33.5283L30.3129 36.558C30.1891 36.6295 30.1272 36.6652 30.0593 36.6652C29.9913 36.6652 29.9294 36.6295 29.8056 36.558L24.558 33.5283C24.4342 33.4568 24.3723 33.4211 24.3383 33.3623C24.3044 33.3034 24.3044 33.2319 24.3044 33.089V27.0295C24.3044 26.8866 24.3044 26.8151 24.3383 26.7563C24.3723 26.6974 24.4342 26.6617 24.558 26.5902L29.8056 23.5605Z"
          fill="#003642"/>
    <path d="M28.6193 100.648V103.065H17.9201V101.002L22.9797 95.5772C23.4881 95.0115 23.8892 94.5137 24.1828 94.084C24.4764 93.6472 24.6877 93.2569 24.8166 92.9131C24.9527 92.5622 25.0207 92.2292 25.0207 91.9141C25.0207 91.4415 24.9419 91.0368 24.7844 90.7003C24.6268 90.3565 24.3941 90.0915 24.0861 89.9053C23.7853 89.7191 23.4129 89.626 22.9689 89.626C22.4963 89.626 22.0881 89.7406 21.7443 89.9698C21.4077 90.199 21.1499 90.5176 20.9709 90.9258C20.799 91.334 20.7131 91.796 20.7131 92.3116H17.6086C17.6086 91.3806 17.8306 90.5284 18.2746 89.7549C18.7186 88.9743 19.3452 88.3549 20.1545 87.8965C20.9637 87.4311 21.9234 87.1983 23.0334 87.1983C24.1291 87.1983 25.0529 87.3773 25.8049 87.7354C26.564 88.0863 27.1369 88.5948 27.5236 89.2608C27.9175 89.9197 28.1144 90.7074 28.1144 91.6241C28.1144 92.1397 28.0321 92.6446 27.8674 93.1387C27.7027 93.6257 27.4663 94.1127 27.1584 94.5997C26.8576 95.0795 26.4924 95.5665 26.0627 96.0606C25.633 96.5547 25.1568 97.0668 24.634 97.5967L21.9162 100.648H28.6193ZM41.2951 93.8692V96.5762C41.2951 97.7507 41.1698 98.7641 40.9191 99.6163C40.6685 100.461 40.3068 101.156 39.8342 101.7C39.3687 102.237 38.8137 102.635 38.1691 102.893C37.5246 103.15 36.8085 103.279 36.0207 103.279C35.3905 103.279 34.8032 103.201 34.259 103.043C33.7147 102.878 33.2241 102.624 32.7873 102.28C32.3576 101.937 31.9852 101.503 31.6701 100.981C31.3622 100.451 31.1258 99.8204 30.9611 99.0899C30.7964 98.3594 30.7141 97.5215 30.7141 96.5762V93.8692C30.7141 92.6947 30.8394 91.6885 31.09 90.8506C31.3478 90.0056 31.7095 89.3145 32.175 88.7774C32.6476 88.2403 33.2062 87.8464 33.8508 87.5958C34.4953 87.338 35.2115 87.209 35.9992 87.209C36.6294 87.209 37.2131 87.2914 37.7502 87.4561C38.2945 87.6137 38.785 87.8607 39.2219 88.1973C39.6587 88.5339 40.0311 88.9672 40.3391 89.4971C40.647 90.0199 40.8833 90.6465 41.048 91.377C41.2128 92.1003 41.2951 92.9311 41.2951 93.8692ZM38.1906 96.9844V93.4503C38.1906 92.8845 38.1584 92.3904 38.0939 91.9678C38.0366 91.5453 37.9471 91.1872 37.8254 90.8936C37.7036 90.5928 37.5532 90.3493 37.3742 90.1631C37.1952 89.9769 36.9911 89.8409 36.7619 89.7549C36.5327 89.669 36.2785 89.626 35.9992 89.626C35.6483 89.626 35.3368 89.6941 35.0646 89.8301C34.7997 89.9662 34.5741 90.1846 34.3879 90.4854C34.2017 90.779 34.0585 91.1729 33.9582 91.6671C33.8651 92.154 33.8185 92.7484 33.8185 93.4503V96.9844C33.8185 97.5502 33.8472 98.0479 33.9045 98.4776C33.9689 98.9073 34.062 99.2761 34.1838 99.584C34.3127 99.8848 34.4631 100.132 34.635 100.325C34.814 100.511 35.0181 100.648 35.2473 100.733C35.4836 100.819 35.7414 100.862 36.0207 100.862C36.3644 100.862 36.6688 100.794 36.9338 100.658C37.2059 100.515 37.4351 100.293 37.6213 99.9922C37.8146 99.6843 37.9579 99.2833 38.051 98.7891C38.1441 98.295 38.1906 97.6934 38.1906 96.9844Z"
          fill="white"/>
    <defs>
        <filter id="filter0_ii_4056_236" x="4.01929" y="-0.198651" width="51.9614" height="60.3973"
                filterUnits="userSpaceOnUse" color-interpolation-filters="sRGB">
            <feFlood flood-opacity="0" result="BackgroundImageFix"/>
            <feBlend mode="normal" in="SourceGraphic" in2="BackgroundImageFix" result="shape"/>
            <feColorMatrix in="SourceAlpha" type="matrix" values="0 0 0 0 0 0 0 0 0 0 0 0 0 0 0 0 0 0 127 0"
                           result="hardAlpha"/>
            <feOffset dy="0.697674"/>
            <feGaussianBlur stdDeviation="0.348837"/>
            <feComposite in2="hardAlpha" operator="arithmetic" k2="-1" k3="1"/>
            <feColorMatrix type="matrix" values="0 0 0 0 1 0 0 0 0 1 0 0 0 0 1 0 0 0 0.5 0"/>
            <feBlend mode="normal" in2="shape" result="effect1_innerShadow_4056_236"/>
            <feColorMatrix in="SourceAlpha" type="matrix" values="0 0 0 0 0 0 0 0 0 0 0 0 0 0 0 0 0 0 127 0"
                           result="hardAlpha"/>
            <feOffset dy="-0.697674"/>
            <feGaussianBlur stdDeviation="0.348837"/>
            <feComposite in2="hardAlpha" operator="arithmetic" k2="-1" k3="1"/>
            <feColorMatrix type="matrix" values="0 0 0 0 0 0 0 0 0 0 0 0 0 0 0 0 0 0 0.5 0"/>
            <feBlend mode="normal" in2="effect1_innerShadow_4056_236" result="effect2_innerShadow_4056_236"/>
        </filter>
        <filter id="filter1_ii_4056_236" x="11.7615" y="8.35732" width="36.5964" height="43.4039"
                filterUnits="userSpaceOnUse" color-interpolation-filters="sRGB">
            <feFlood flood-opacity="0" result="BackgroundImageFix"/>
            <feBlend mode="normal" in="SourceGraphic" in2="BackgroundImageFix" result="shape"/>
            <feColorMatrix in="SourceAlpha" type="matrix" values="0 0 0 0 0 0 0 0 0 0 0 0 0 0 0 0 0 0 127 0"
                           result="hardAlpha"/>
            <feOffset dy="0.697674"/>
            <feGaussianBlur stdDeviation="0.697674"/>
            <feComposite in2="hardAlpha" operator="arithmetic" k2="-1" k3="1"/>
            <feColorMatrix type="matrix" values="0 0 0 0 1 0 0 0 0 1 0 0 0 0 1 0 0 0 1 0"/>
            <feBlend mode="normal" in2="shape" result="effect1_innerShadow_4056_236"/>
            <feColorMatrix in="SourceAlpha" type="matrix" values="0 0 0 0 0 0 0 0 0 0 0 0 0 0 0 0 0 0 127 0"
                           result="hardAlpha"/>
            <feOffset dy="-0.697674"/>
            <feGaussianBlur stdDeviation="0.697674"/>
            <feComposite in2="hardAlpha" operator="arithmetic" k2="-1" k3="1"/>
            <feColorMatrix type="matrix" values="0 0 0 0 0 0 0 0 0 0 0 0 0 0 0 0 0 0 0.6 0"/>
            <feBlend mode="normal" in2="effect1_innerShadow_4056_236" result="effect2_innerShadow_4056_236"/>
        </filter>
    </defs>
</svg>
