<svg width="60" height="106" viewBox="0 0 60 106" fill="none" xmlns="http://www.w3.org/2000/svg">
    <g filter="url(#filter0_ii_4056_236)">
        <path d="M30 1.5459C30.2313 1.5459 30.4921 1.60139 30.915 1.79297C31.137 1.89352 31.383 2.02094 31.6738 2.18164L32.7021 2.76855L52.2314 14.0439C53.0362 14.5086 53.5746 14.8206 53.9707 15.1045C54.2538 15.3074 54.4252 15.4692 54.542 15.6221L54.6426 15.7725C54.7582 15.9728 54.8402 16.2267 54.8857 16.6885C54.9335 17.1734 54.9346 17.7955 54.9346 18.7246V41.2754C54.9346 42.2045 54.9335 42.8266 54.8857 43.3115C54.8516 43.6578 54.7965 43.887 54.7227 44.0645L54.6426 44.2275C54.5269 44.4278 54.3478 44.6252 53.9707 44.8955C53.5746 45.1794 53.0362 45.4914 52.2314 45.9561L32.7021 57.2314C31.8976 57.6959 31.3588 58.006 30.915 58.207C30.4921 58.3986 30.2313 58.4541 30 58.4541L29.8193 58.4424C29.6285 58.4177 29.4023 58.3508 29.085 58.207C28.863 58.1065 28.617 57.9791 28.3262 57.8184L27.2979 57.2314L7.76855 45.9561C6.96378 45.4914 6.42537 45.1794 6.0293 44.8955C5.74622 44.6926 5.57476 44.5308 5.45801 44.3779L5.35742 44.2275C5.24178 44.0272 5.15981 43.7733 5.11426 43.3115C5.06646 42.8266 5.06543 42.2045 5.06543 41.2754L5.06543 18.7246C5.06543 17.7955 5.06646 17.1734 5.11426 16.6885C5.14841 16.3422 5.20345 16.113 5.27734 15.9355L5.35742 15.7725C5.47306 15.5722 5.65219 15.3748 6.0293 15.1045C6.42537 14.8206 6.96378 14.5086 7.76855 14.0439L27.2979 2.76855C28.1024 2.30407 28.6412 1.99401 29.085 1.79297C29.5079 1.60139 29.7687 1.5459 30 1.5459Z"
              stroke="white" stroke-width="2.09302"/>
    </g>
    <g filter="url(#filter1_ii_4056_236)">
        <path d="M29.2532 9.39584C29.6468 9.16861 29.8436 9.055 30.0597 9.055C30.2758 9.055 30.4726 9.16861 30.8661 9.39584L47.5515 19.0291C47.9451 19.2564 48.1419 19.37 48.2499 19.5571C48.358 19.7443 48.358 19.9715 48.358 20.426V39.6926C48.358 40.147 48.358 40.3743 48.2499 40.5614C48.1419 40.7485 47.9451 40.8622 47.5515 41.0894L30.8661 50.7227C30.4726 50.9499 30.2758 51.0635 30.0597 51.0635C29.8436 51.0635 29.6468 50.9499 29.2532 50.7227L12.5679 41.0894C12.1743 40.8622 11.9775 40.7485 11.8695 40.5614C11.7614 40.3743 11.7614 40.147 11.7614 39.6926L11.7614 20.426C11.7614 19.9715 11.7614 19.7443 11.8695 19.5571C11.9775 19.37 12.1743 19.2564 12.5679 19.0291L29.2532 9.39584Z"
              fill="white"/>
    </g>
    <path d="M29.8056 23.5605C29.9294 23.489 29.9913 23.4533 30.0593 23.4533C30.1272 23.4533 30.1891 23.489 30.3129 23.5605L35.5606 26.5902C35.6843 26.6617 35.7462 26.6974 35.7802 26.7563C35.8142 26.8151 35.8142 26.8866 35.8142 27.0295V33.089C35.8142 33.2319 35.8142 33.3034 35.7802 33.3623C35.7462 33.4211 35.6843 33.4568 35.5606 33.5283L30.3129 36.558C30.1891 36.6295 30.1272 36.6652 30.0593 36.6652C29.9913 36.6652 29.9294 36.6295 29.8056 36.558L24.558 33.5283C24.4342 33.4568 24.3723 33.4211 24.3383 33.3623C24.3044 33.3034 24.3044 33.2319 24.3044 33.089V27.0295C24.3044 26.8866 24.3044 26.8151 24.3383 26.7563C24.3723 26.6974 24.4342 26.6617 24.558 26.5902L29.8056 23.5605Z"
          fill="#003642"/>
    <path d="M28.8342 100.648V103.065H18.135V101.002L23.1945 95.5772C23.703 95.0115 24.104 94.5137 24.3976 94.084C24.6913 93.6472 24.9025 93.2569 25.0314 92.9131C25.1675 92.5622 25.2355 92.2292 25.2355 91.9141C25.2355 91.4415 25.1568 91.0368 24.9992 90.7003C24.8417 90.3565 24.6089 90.0915 24.301 89.9053C24.0002 89.7191 23.6278 89.626 23.1838 89.626C22.7111 89.626 22.3029 89.7406 21.9592 89.9698C21.6226 90.199 21.3648 90.5176 21.1857 90.9258C21.0139 91.334 20.9279 91.796 20.9279 92.3116H17.8234C17.8234 91.3806 18.0454 90.5284 18.4894 89.7549C18.9335 88.9743 19.5601 88.3549 20.3693 87.8965C21.1786 87.4311 22.1382 87.1983 23.2482 87.1983C24.3439 87.1983 25.2678 87.3773 26.0197 87.7354C26.7788 88.0863 27.3518 88.5948 27.7385 89.2608C28.1324 89.9197 28.3293 90.7074 28.3293 91.6241C28.3293 92.1397 28.2469 92.6446 28.0822 93.1387C27.9175 93.6257 27.6812 94.1127 27.3732 94.5997C27.0725 95.0795 26.7072 95.5665 26.2775 96.0606C25.8478 96.5547 25.3716 97.0668 24.8488 97.5967L22.131 100.648H28.8342ZM41.467 100.648V103.065H30.7678V101.002L35.8273 95.5772C36.3358 95.0115 36.7368 94.5137 37.0305 94.084C37.3241 93.6472 37.5353 93.2569 37.6643 92.9131C37.8003 92.5622 37.8684 92.2292 37.8684 91.9141C37.8684 91.4415 37.7896 91.0368 37.632 90.7003C37.4745 90.3565 37.2417 90.0915 36.9338 89.9053C36.633 89.7191 36.2606 89.626 35.8166 89.626C35.3439 89.626 34.9357 89.7406 34.592 89.9698C34.2554 90.199 33.9976 90.5176 33.8185 90.9258C33.6467 91.334 33.5607 91.796 33.5607 92.3116H30.4562C30.4562 91.3806 30.6782 90.5284 31.1223 89.7549C31.5663 88.9743 32.1929 88.3549 33.0021 87.8965C33.8114 87.4311 34.771 87.1983 35.881 87.1983C36.9768 87.1983 37.9006 87.3773 38.6525 87.7354C39.4116 88.0863 39.9846 88.5948 40.3713 89.2608C40.7652 89.9197 40.9621 90.7074 40.9621 91.6241C40.9621 92.1397 40.8797 92.6446 40.715 93.1387C40.5503 93.6257 40.314 94.1127 40.006 94.5997C39.7053 95.0795 39.34 95.5665 38.9103 96.0606C38.4807 96.5547 38.0044 97.0668 37.4816 97.5967L34.7639 100.648H41.467Z"
          fill="white"/>
    <defs>
        <filter id="filter0_ii_4056_236" x="4.01929" y="-0.198651" width="51.9614" height="60.3973"
                filterUnits="userSpaceOnUse" color-interpolation-filters="sRGB">
            <feFlood flood-opacity="0" result="BackgroundImageFix"/>
            <feBlend mode="normal" in="SourceGraphic" in2="BackgroundImageFix" result="shape"/>
            <feColorMatrix in="SourceAlpha" type="matrix" values="0 0 0 0 0 0 0 0 0 0 0 0 0 0 0 0 0 0 127 0"
                           result="hardAlpha"/>
            <feOffset dy="0.697674"/>
            <feGaussianBlur stdDeviation="0.348837"/>
            <feComposite in2="hardAlpha" operator="arithmetic" k2="-1" k3="1"/>
            <feColorMatrix type="matrix" values="0 0 0 0 1 0 0 0 0 1 0 0 0 0 1 0 0 0 0.5 0"/>
            <feBlend mode="normal" in2="shape" result="effect1_innerShadow_4056_236"/>
            <feColorMatrix in="SourceAlpha" type="matrix" values="0 0 0 0 0 0 0 0 0 0 0 0 0 0 0 0 0 0 127 0"
                           result="hardAlpha"/>
            <feOffset dy="-0.697674"/>
            <feGaussianBlur stdDeviation="0.348837"/>
            <feComposite in2="hardAlpha" operator="arithmetic" k2="-1" k3="1"/>
            <feColorMatrix type="matrix" values="0 0 0 0 0 0 0 0 0 0 0 0 0 0 0 0 0 0 0.5 0"/>
            <feBlend mode="normal" in2="effect1_innerShadow_4056_236" result="effect2_innerShadow_4056_236"/>
        </filter>
        <filter id="filter1_ii_4056_236" x="11.7615" y="8.35732" width="36.5964" height="43.4039"
                filterUnits="userSpaceOnUse" color-interpolation-filters="sRGB">
            <feFlood flood-opacity="0" result="BackgroundImageFix"/>
            <feBlend mode="normal" in="SourceGraphic" in2="BackgroundImageFix" result="shape"/>
            <feColorMatrix in="SourceAlpha" type="matrix" values="0 0 0 0 0 0 0 0 0 0 0 0 0 0 0 0 0 0 127 0"
                           result="hardAlpha"/>
            <feOffset dy="0.697674"/>
            <feGaussianBlur stdDeviation="0.697674"/>
            <feComposite in2="hardAlpha" operator="arithmetic" k2="-1" k3="1"/>
            <feColorMatrix type="matrix" values="0 0 0 0 1 0 0 0 0 1 0 0 0 0 1 0 0 0 1 0"/>
            <feBlend mode="normal" in2="shape" result="effect1_innerShadow_4056_236"/>
            <feColorMatrix in="SourceAlpha" type="matrix" values="0 0 0 0 0 0 0 0 0 0 0 0 0 0 0 0 0 0 127 0"
                           result="hardAlpha"/>
            <feOffset dy="-0.697674"/>
            <feGaussianBlur stdDeviation="0.697674"/>
            <feComposite in2="hardAlpha" operator="arithmetic" k2="-1" k3="1"/>
            <feColorMatrix type="matrix" values="0 0 0 0 0 0 0 0 0 0 0 0 0 0 0 0 0 0 0.6 0"/>
            <feBlend mode="normal" in2="effect1_innerShadow_4056_236" result="effect2_innerShadow_4056_236"/>
        </filter>
    </defs>
</svg>
