<svg width="90" height="90" viewBox="0 0 90 90" fill="none" xmlns="http://www.w3.org/2000/svg">
    <rect width="90" height="90" rx="45" fill="#F2F2F2"/>
    <path d="M41.6025 44.1094C41.8962 43.676 42.2697 43.3025 42.7031 43.0087L39.0937 34.2937C36.3945 35.6178 34.2115 37.8008 32.8875 40.5L41.6025 44.1094ZM57.742 50.7966C58.7214 47.9516 58.7214 44.8609 57.742 42.0159L49.027 45.6253C49.1264 46.1406 49.1264 46.6701 49.027 47.1853L57.742 50.7966ZM47.2969 43.0087C47.7303 43.3025 48.1038 43.676 48.3975 44.1094L57.1125 40.5C55.7885 37.8008 53.6054 35.6178 50.9062 34.2937L47.2969 43.0087ZM42.7031 49.8038C42.2697 49.51 41.8962 49.1365 41.6025 48.7031L32.8875 52.3125C34.2115 55.0117 36.3945 57.1947 39.0937 58.5187L42.7031 49.8038ZM40.973 47.1863C40.8736 46.671 40.8736 46.1415 40.973 45.6262L32.258 42.0169C31.2786 44.8618 31.2786 47.9526 32.258 50.7975L40.973 47.1863ZM48.3975 48.7031C48.1038 49.1365 47.7303 49.51 47.2969 49.8038L50.9062 58.5187C53.6054 57.1947 55.7885 55.0117 57.1125 52.3125L48.3975 48.7031ZM45.78 50.4333C45.2647 50.5327 44.7353 50.5327 44.22 50.4333L40.6106 59.1483C43.4556 60.1277 46.5463 60.1277 49.3912 59.1483L45.78 50.4333ZM45 43.9453C44.5133 43.9453 44.0375 44.0896 43.6328 44.3601C43.2281 44.6305 42.9127 45.0148 42.7264 45.4645C42.5401 45.9142 42.4914 46.409 42.5863 46.8864C42.6813 47.3637 42.9157 47.8022 43.2599 48.1464C43.604 48.4906 44.0425 48.7249 44.5199 48.8199C44.9973 48.9149 45.4921 48.8661 45.9418 48.6799C46.3914 48.4936 46.7758 48.1782 47.0462 47.7735C47.3166 47.3688 47.4609 46.893 47.4609 46.4062C47.4602 45.7538 47.2007 45.1283 46.7393 44.6669C46.278 44.2056 45.6524 43.9461 45 43.9453ZM45 47.2266C44.8378 47.2266 44.6792 47.1785 44.5443 47.0883C44.4094 46.9982 44.3042 46.8701 44.2421 46.7202C44.18 46.5703 44.1638 46.4053 44.1954 46.2462C44.2271 46.0871 44.3052 45.9409 44.4199 45.8262C44.5347 45.7115 44.6808 45.6334 44.84 45.6017C44.9991 45.57 45.164 45.5863 45.3139 45.6484C45.4638 45.7105 45.5919 45.8156 45.6821 45.9505C45.7722 46.0854 45.8203 46.244 45.8203 46.4062C45.8202 46.6238 45.7337 46.8323 45.5799 46.9862C45.4261 47.14 45.2175 47.2264 45 47.2266ZM42.7195 31.253L44.243 34.9092C44.3051 35.0588 44.4102 35.1866 44.545 35.2765C44.6797 35.3664 44.838 35.4143 45 35.4143C45.162 35.4143 45.3203 35.3664 45.455 35.2765C45.5898 35.1866 45.6949 35.0588 45.757 34.9092L47.2805 31.253C47.3325 31.1283 47.353 30.9928 47.34 30.8583C47.327 30.7239 47.281 30.5947 47.2061 30.4823C47.1312 30.3699 47.0297 30.2778 46.9106 30.2141C46.7915 30.1504 46.6585 30.1171 46.5234 30.1172H43.4766C43.3415 30.1171 43.2085 30.1504 43.0894 30.2141C42.9703 30.2778 42.8688 30.3699 42.7939 30.4823C42.7189 30.5947 42.673 30.7239 42.66 30.8583C42.647 30.9928 42.6675 31.1283 42.7195 31.253Z"
          fill="#003541"/>
    <path d="M48.1993 33.3136L47.2716 35.5402C47.0847 35.9886 46.7693 36.3717 46.3651 36.6411C45.9608 36.9106 45.4859 37.0544 45.0001 37.0544C44.5142 37.0544 44.0393 36.9106 43.635 36.6411C43.2308 36.3717 42.9154 35.9886 42.7285 35.5402L41.8008 33.3136C41.3965 33.4127 40.9994 33.5295 40.6097 33.6642L44.2191 42.3792C44.7344 42.2799 45.2639 42.2799 45.7791 42.3792L49.3885 33.6642C49.0001 33.5298 48.6036 33.413 48.1993 33.3136Z"
          fill="#003541"/>
</svg>
