<svg width="134" height="100" viewBox="0 0 134 100" fill="none" xmlns="http://www.w3.org/2000/svg">
    <g filter="url(#filter0_ii_21_197)">
        <path d="M67 6.90332C68.0333 6.90332 69.1971 7.15413 71.0859 8.00977C72.5729 8.68334 74.2994 9.62966 76.5859 10.9365L79.0713 12.3672L108.278 29.2295C111.873 31.3047 114.275 32.6979 116.044 33.9658C117.519 35.0229 118.315 35.8312 118.837 36.6162L119.045 36.9521C119.562 37.847 119.927 38.9804 120.131 41.0439C120.344 43.21 120.35 45.9872 120.35 50.1377V83.8623C120.35 88.0128 120.344 90.79 120.131 92.9561C119.953 94.7619 119.65 95.8556 119.231 96.7002L119.045 97.0479C118.528 97.9427 117.729 98.8261 116.044 100.034C114.717 100.985 113.034 102.006 110.759 103.333L108.278 104.771L79.0713 121.633C75.4766 123.708 73.0686 125.092 71.0859 125.99C69.1971 126.846 68.0333 127.097 67 127.097C65.9667 127.097 64.8029 126.846 62.9141 125.99C61.4271 125.317 59.7006 124.37 57.4141 123.063L54.9287 121.633L25.7217 104.771C22.1273 102.695 19.7251 101.302 17.9561 100.034C16.2705 98.8261 15.4717 97.9427 14.9551 97.0479C14.4385 96.153 14.0726 95.0196 13.8691 92.9561C13.6557 90.79 13.6504 88.0128 13.6504 83.8623V50.1377C13.6504 45.9872 13.6557 43.21 13.8691 41.0439C14.0726 38.9804 14.4385 37.847 14.9551 36.9521C15.4717 36.0573 16.2705 35.1739 17.9561 33.9658C19.2829 33.0149 20.9661 31.9938 23.2412 30.667L25.7217 29.2295L54.9287 12.3672C58.5234 10.2918 60.9314 8.9079 62.9141 8.00977C64.567 7.26103 65.6646 6.97558 66.6055 6.91602L67 6.90332Z" stroke="#003541" stroke-width="9.34884"/>
    </g>
    <g filter="url(#filter1_ii_21_197)">
        <path d="M63.5306 22.0243C65.2886 21.0093 66.1676 20.5018 67.1327 20.5018C68.0979 20.5018 68.9769 21.0093 70.7349 22.0243L104.397 41.459C106.155 42.4739 107.034 42.9814 107.516 43.8173C107.999 44.6532 107.999 45.6681 107.999 47.6981V86.5674C107.999 88.5974 107.999 89.6123 107.516 90.4482C107.034 91.2841 106.155 91.7916 104.397 92.8065L70.7349 112.241C68.9769 113.256 68.0979 113.764 67.1327 113.764C66.1676 113.764 65.2886 113.256 63.5306 112.241L29.8687 92.8065C28.1108 91.7916 27.2318 91.2841 26.7492 90.4482C26.2666 89.6123 26.2666 88.5974 26.2666 86.5674V47.6981C26.2666 45.6681 26.2666 44.6532 26.7492 43.8173C27.2318 42.9814 28.1108 42.4739 29.8687 41.459L63.5306 22.0243Z" fill="#003541"/>
    </g>
    <path d="M65.9996 52.9455C66.5525 52.6262 66.8289 52.4666 67.1325 52.4666C67.436 52.4666 67.7125 52.6262 68.2654 52.9455L78.8522 59.0578C79.4051 59.377 79.6815 59.5366 79.8333 59.7995C79.9851 60.0624 79.9851 60.3816 79.9851 61.02V73.2447C79.9851 73.8831 79.9851 74.2023 79.8333 74.4652C79.6815 74.7281 79.4051 74.8877 78.8522 75.2069L68.2654 81.3192C67.7125 81.6384 67.436 81.798 67.1325 81.798C66.8289 81.798 66.5525 81.6384 65.9996 81.3192L55.4127 75.2069C54.8598 74.8877 54.5834 74.7281 54.4316 74.4652C54.2798 74.2023 54.2798 73.8831 54.2798 73.2447V61.02C54.2798 60.3816 54.2798 60.0624 54.4316 59.7995C54.5834 59.5366 54.8598 59.377 55.4127 59.0578L65.9996 52.9455Z" fill="white"/>
    <defs>
        <filter id="filter0_ii_21_197" x="8.97632" y="-0.887275" width="116.047" height="135.775" filterUnits="userSpaceOnUse" color-interpolation-filters="sRGB">
            <feFlood flood-opacity="0" result="BackgroundImageFix"/>
            <feBlend mode="normal" in="SourceGraphic" in2="BackgroundImageFix" result="shape"/>
            <feColorMatrix in="SourceAlpha" type="matrix" values="0 0 0 0 0 0 0 0 0 0 0 0 0 0 0 0 0 0 127 0" result="hardAlpha"/>
            <feOffset dy="3.11628"/>
            <feGaussianBlur stdDeviation="1.55814"/>
            <feComposite in2="hardAlpha" operator="arithmetic" k2="-1" k3="1"/>
            <feColorMatrix type="matrix" values="0 0 0 0 1 0 0 0 0 1 0 0 0 0 1 0 0 0 0.5 0"/>
            <feBlend mode="normal" in2="shape" result="effect1_innerShadow_21_197"/>
            <feColorMatrix in="SourceAlpha" type="matrix" values="0 0 0 0 0 0 0 0 0 0 0 0 0 0 0 0 0 0 127 0" result="hardAlpha"/>
            <feOffset dy="-3.11628"/>
            <feGaussianBlur stdDeviation="1.55814"/>
            <feComposite in2="hardAlpha" operator="arithmetic" k2="-1" k3="1"/>
            <feColorMatrix type="matrix" values="0 0 0 0 0 0 0 0 0 0 0 0 0 0 0 0 0 0 0.5 0"/>
            <feBlend mode="normal" in2="effect1_innerShadow_21_197" result="effect2_innerShadow_21_197"/>
        </filter>
        <filter id="filter1_ii_21_197" x="26.2666" y="17.3856" width="81.7324" height="99.4944" filterUnits="userSpaceOnUse" color-interpolation-filters="sRGB">
            <feFlood flood-opacity="0" result="BackgroundImageFix"/>
            <feBlend mode="normal" in="SourceGraphic" in2="BackgroundImageFix" result="shape"/>
            <feColorMatrix in="SourceAlpha" type="matrix" values="0 0 0 0 0 0 0 0 0 0 0 0 0 0 0 0 0 0 127 0" result="hardAlpha"/>
            <feOffset dy="3.11628"/>
            <feGaussianBlur stdDeviation="3.11628"/>
            <feComposite in2="hardAlpha" operator="arithmetic" k2="-1" k3="1"/>
            <feColorMatrix type="matrix" values="0 0 0 0 1 0 0 0 0 1 0 0 0 0 1 0 0 0 1 0"/>
            <feBlend mode="normal" in2="shape" result="effect1_innerShadow_21_197"/>
            <feColorMatrix in="SourceAlpha" type="matrix" values="0 0 0 0 0 0 0 0 0 0 0 0 0 0 0 0 0 0 127 0" result="hardAlpha"/>
            <feOffset dy="-3.11628"/>
            <feGaussianBlur stdDeviation="3.11628"/>
            <feComposite in2="hardAlpha" operator="arithmetic" k2="-1" k3="1"/>
            <feColorMatrix type="matrix" values="0 0 0 0 0 0 0 0 0 0 0 0 0 0 0 0 0 0 0.6 0"/>
            <feBlend mode="normal" in2="effect1_innerShadow_21_197" result="effect2_innerShadow_21_197"/>
        </filter>
    </defs>
</svg>
