<svg width="120" height="113" viewBox="0 0 120 113" fill="none" xmlns="http://www.w3.org/2000/svg">
    <g clip-path="url(#clip0_21_203)">
        <path d="M113.669 33.3518C115.473 33.7838 117.079 34.8108 118.227 36.2672C119.376 37.7236 120 39.5245 120 41.3794V111.724C120 113.919 119.128 116.024 117.576 117.576C116.024 119.128 113.919 120 111.724 120H8.27586C6.08097 120 3.97597 119.128 2.42394 117.576C0.871919 116.024 0 113.919 0 111.724V41.3794C0 39.1845 0.871919 37.0795 2.42394 35.5275C3.97597 33.9754 6.08097 33.1035 8.27586 33.1035H64.0345L113.669 33.3518Z"
              fill="url(#paint0_linear_21_203)"/>
        <path d="M93.0291 2.64632L99.1346 15.507C99.4474 16.1873 99.9228 16.7802 100.519 17.2333C101.115 17.6865 101.813 17.9861 102.553 18.1056L116.096 20.1518C116.959 20.3231 117.759 20.7252 118.411 21.3152C119.064 21.9052 119.544 22.6611 119.801 23.5025C120.058 24.3438 120.082 25.239 119.87 26.0928C119.659 26.9467 119.219 27.7271 118.599 28.3511L108.875 38.1974C108.333 38.7557 107.931 39.4339 107.7 40.1769C107.469 40.9199 107.417 41.7068 107.547 42.4739L109.862 56.4456C110.044 57.2941 109.982 58.1767 109.684 58.9916C109.386 59.8064 108.863 60.5204 108.177 61.051C107.49 61.5816 106.668 61.9073 105.804 61.9904C104.94 62.0735 104.07 61.9107 103.295 61.5208L91.0573 54.8277C90.4167 54.4745 89.6971 54.2893 88.9656 54.2893C88.2341 54.2893 87.5145 54.4745 86.8739 54.8277L74.638 61.5146C73.8633 61.9045 72.9942 62.0675 72.1308 61.9848C71.2675 61.9022 70.445 61.5772 69.7584 61.0473C69.0718 60.5175 68.5488 59.8043 68.2499 58.9902C67.9511 58.176 67.8884 57.2939 68.0691 56.4456L70.3739 42.4739C70.5041 41.7068 70.4517 40.9199 70.2209 40.1769C69.9901 39.4339 69.5875 38.7557 69.0456 38.1974L59.3215 28.3511C58.7015 27.7271 58.2623 26.9467 58.0508 26.0928C57.8392 25.239 57.8631 24.3438 58.12 23.5025C58.3768 22.6611 58.8571 21.9052 59.5095 21.3152C60.1619 20.7252 60.9621 20.3231 61.8249 20.1518L75.3684 18.1056C76.1075 17.9861 76.8059 17.6865 77.402 17.2333C77.9981 16.7802 78.4735 16.1873 78.7863 15.507L84.8918 2.64632C85.2389 1.85641 85.8085 1.18462 86.531 0.712949C87.2535 0.241275 88.0976 -0.0098877 88.9605 -0.0098877C89.8233 -0.0098877 90.6674 0.241275 91.3899 0.712949C92.1124 1.18462 92.6819 1.85641 93.0291 2.64632Z"
              fill="#F3D55B"/>
        <path d="M88.9654 70.3448C88.4167 70.3448 87.8905 70.1268 87.5025 69.7388C87.1144 69.3508 86.8965 68.8246 86.8965 68.2759V62.069C86.8965 61.5202 87.1144 60.994 87.5025 60.606C87.8905 60.218 88.4167 60 88.9654 60C89.5142 60 90.0404 60.218 90.4284 60.606C90.8164 60.994 91.0344 61.5202 91.0344 62.069V68.2759C91.0344 68.8246 90.8164 69.3508 90.4284 69.7388C90.0404 70.1268 89.5142 70.3448 88.9654 70.3448ZM88.9654 78.6207C88.4167 78.6207 87.8905 78.4027 87.5025 78.0147C87.1144 77.6267 86.8965 77.1004 86.8965 76.5517V74.4828C86.8965 73.934 87.1144 73.4078 87.5025 73.0198C87.8905 72.6318 88.4167 72.4138 88.9654 72.4138C89.5142 72.4138 90.0404 72.6318 90.4284 73.0198C90.8164 73.4078 91.0344 73.934 91.0344 74.4828V76.5517C91.0344 77.1004 90.8164 77.6267 90.4284 78.0147C90.0404 78.4027 89.5142 78.6207 88.9654 78.6207ZM97.2413 74.4828C96.6926 74.4828 96.1663 74.2648 95.7783 73.8768C95.3903 73.4888 95.1723 72.9625 95.1723 72.4138V66.2069C95.1723 65.6582 95.3903 65.1319 95.7783 64.7439C96.1663 64.3559 96.6926 64.1379 97.2413 64.1379C97.79 64.1379 98.3163 64.3559 98.7043 64.7439C99.0923 65.1319 99.3103 65.6582 99.3103 66.2069V72.4138C99.3103 72.9625 99.0923 73.4888 98.7043 73.8768C98.3163 74.2648 97.79 74.4828 97.2413 74.4828ZM80.6896 74.4828C80.1408 74.4828 79.6146 74.2648 79.2266 73.8768C78.8386 73.4888 78.6206 72.9625 78.6206 72.4138V66.2069C78.6206 65.6582 78.8386 65.1319 79.2266 64.7439C79.6146 64.3559 80.1408 64.1379 80.6896 64.1379C81.2383 64.1379 81.7645 64.3559 82.1526 64.7439C82.5406 65.1319 82.7585 65.6582 82.7585 66.2069V72.4138C82.7585 72.9625 82.5406 73.4888 82.1526 73.8768C81.7645 74.2648 81.2383 74.4828 80.6896 74.4828Z"
              fill="white"/>
        <path d="M0 103.448H120V82.7586H0V103.448Z" fill="#2C3E50"/>
        <path d="M0 103.448H120V82.7586H0V103.448Z" fill="url(#paint1_linear_21_203)"/>
        <path d="M37.2414 45.5173H16.5517C14.2664 45.5173 12.4138 47.3699 12.4138 49.6553V62.0691C12.4138 64.3544 14.2664 66.207 16.5517 66.207H37.2414C39.5267 66.207 41.3793 64.3544 41.3793 62.0691V49.6553C41.3793 47.3699 39.5267 45.5173 37.2414 45.5173Z"
              fill="white"/>
        <path d="M108.89 38.1931C108.347 38.7527 107.943 39.4314 107.709 40.175C107.476 40.9187 107.42 41.7066 107.545 42.4759L109.862 56.4414C110.045 57.2917 109.983 58.1763 109.685 58.9931C109.386 59.81 108.863 60.5258 108.175 61.0579C107.487 61.59 106.663 61.9168 105.797 62.0005C104.932 62.0843 104.06 61.9215 103.283 61.531L91.0552 54.8276C89.7517 54.1241 88.1793 54.1241 86.8759 54.8276L74.6483 61.531C73.8712 61.9215 72.9995 62.0843 72.1339 62.0005C71.2682 61.9168 70.4439 61.59 69.756 61.0579C69.0681 60.5258 68.5447 59.81 68.2462 58.9931C67.9477 58.1763 67.8863 57.2917 68.069 56.4414L68.5862 53.3586C99.3104 34.7793 94.5311 9.6 91.738 0.972412C92.2842 1.42758 92.7228 2.00276 93.0207 2.64827L99.1242 15.5172C99.4448 16.1939 99.9249 16.7827 100.523 17.2331C101.121 17.6836 101.82 17.9822 102.559 18.1034L116.09 20.1517C116.952 20.3225 117.752 20.724 118.404 21.3134C119.057 21.9029 119.537 22.6582 119.794 23.499C120.051 24.3398 120.075 25.2345 119.863 26.0878C119.652 26.9412 119.213 27.7212 118.593 28.3448L108.89 38.1931Z"
              fill="#F0C419"/>
    </g>
    <defs>
        <linearGradient id="paint0_linear_21_203" x1="60" y1="33.1035" x2="60" y2="120" gradientUnits="userSpaceOnUse">
            <stop stop-color="#003541"/>
            <stop offset="1" stop-color="#0088A7"/>
        </linearGradient>
        <linearGradient id="paint1_linear_21_203" x1="60" y1="103.448" x2="60" y2="82.7586"
                        gradientUnits="userSpaceOnUse">
            <stop stop-color="#003541"/>
            <stop offset="1" stop-color="#0088A7"/>
        </linearGradient>
        <clipPath id="clip0_21_203">
            <rect width="120" height="120" fill="white"/>
        </clipPath>
    </defs>
</svg>
