<svg width="134" height="100" viewBox="0 0 181 100" fill="none" xmlns="http://www.w3.org/2000/svg">
    <g filter="url(#filter0_d_20_1357)">
        <rect x="27" width="134" height="134" rx="67" fill="url(#paint0_linear_20_1357)"/>
        <rect width="123.28" height="123.28" rx="61.64" transform="matrix(1 0 0 -1 32.3601 128.64)"
              fill="url(#paint1_linear_20_1357)"/>
        <rect width="123.28" height="123.28" rx="61.64" transform="matrix(1 0 0 -1 32.3601 128.64)"
              fill="url(#paint2_linear_20_1357)"/>
        <g clip-path="url(#clip0_20_1357)">
            <rect x="40.3999" y="13.4" width="107.2" height="107.2" rx="53.6" fill="url(#paint3_linear_20_1357)"/>
            <path d="M131.901 29.099C125.248 22.446 116.961 17.6615 107.873 15.2263L94 67L131.901 29.099Z" fill="white"
                  fill-opacity="0.5"/>
            <path d="M145.774 80.8727C148.209 71.7845 148.209 62.2155 145.774 53.1273L94 67L145.774 80.8727Z"
                  fill="white" fill-opacity="0.5"/>
            <path d="M107.873 118.774C116.961 116.339 125.248 111.554 131.901 104.901L93.9999 67.0001L107.873 118.774Z"
                  fill="white" fill-opacity="0.5"/>
            <path d="M56.0991 104.901C62.7521 111.554 71.0391 116.338 80.1273 118.774L94 66.9999L56.0991 104.901Z"
                  fill="white" fill-opacity="0.5"/>
            <path d="M42.2263 53.1273C39.7911 62.2155 39.7911 71.7845 42.2263 80.8727L93.9999 67L42.2263 53.1273Z"
                  fill="white" fill-opacity="0.5"/>
            <path d="M80.1272 15.2264C71.039 17.6616 62.752 22.4461 56.099 29.0991L93.9999 67L80.1272 15.2264Z"
                  fill="white" fill-opacity="0.5"/>
        </g>
        <path d="M94 53.6L99.5702 63.248H88.4297L94 53.6Z" fill="white"/>
        <circle cx="94" cy="67" r="5.36" fill="white" stroke="#003541" stroke-width="3.216"/>
    </g>
    <defs>
        <filter id="filter0_d_20_1357" x="0.199999" y="0" width="187.6" height="187.6" filterUnits="userSpaceOnUse"
                color-interpolation-filters="sRGB">
            <feFlood flood-opacity="0" result="BackgroundImageFix"/>
            <feColorMatrix in="SourceAlpha" type="matrix" values="0 0 0 0 0 0 0 0 0 0 0 0 0 0 0 0 0 0 127 0"
                           result="hardAlpha"/>
            <feOffset dy="26.8"/>
            <feGaussianBlur stdDeviation="13.4"/>
            <feComposite in2="hardAlpha" operator="out"/>
            <feColorMatrix type="matrix" values="0 0 0 0 0 0 0 0 0 0.207843 0 0 0 0 0.254902 0 0 0 0.2 0"/>
            <feBlend mode="normal" in2="BackgroundImageFix" result="effect1_dropShadow_20_1357"/>
            <feBlend mode="normal" in="SourceGraphic" in2="effect1_dropShadow_20_1357" result="shape"/>
        </filter>
        <linearGradient id="paint0_linear_20_1357" x1="94" y1="0" x2="94" y2="134" gradientUnits="userSpaceOnUse">
            <stop stop-color="#003541"/>
            <stop offset="1" stop-color="#0088A7"/>
        </linearGradient>
        <linearGradient id="paint1_linear_20_1357" x1="61.64" y1="0" x2="61.64" y2="123.28"
                        gradientUnits="userSpaceOnUse">
            <stop stop-color="#003541"/>
            <stop offset="1" stop-color="#0088A7"/>
        </linearGradient>
        <linearGradient id="paint2_linear_20_1357" x1="61.64" y1="0" x2="61.64" y2="123.28"
                        gradientUnits="userSpaceOnUse">
            <stop stop-color="#003541"/>
            <stop offset="1" stop-color="#0088A7"/>
        </linearGradient>
        <linearGradient id="paint3_linear_20_1357" x1="93.9999" y1="13.4" x2="93.9999" y2="120.6"
                        gradientUnits="userSpaceOnUse">
            <stop stop-color="#003541"/>
            <stop offset="1" stop-color="#0088A7"/>
        </linearGradient>
        <clipPath id="clip0_20_1357">
            <rect x="40.3999" y="13.4" width="107.2" height="107.2" rx="53.6" fill="white"/>
        </clipPath>
    </defs>
</svg>
