<svg width="90" height="90" viewBox="0 0 90 90" fill="none" xmlns="http://www.w3.org/2000/svg">
    <rect width="90" height="90" rx="45" fill="#F2F2F2"/>
    <path d="M57.649 32.351C57.7669 32.4688 57.8398 32.6241 57.8552 32.7901C57.8706 32.956 57.8275 33.1221 57.7333 33.2596C54.5331 37.9335 50.9879 42.1652 46.5769 46.5762C42.1659 50.9872 37.9342 54.5324 33.2596 57.7326C33.1222 57.8277 32.9558 57.8716 32.7893 57.8566C32.6229 57.8416 32.467 57.7686 32.3488 57.6505C32.2307 57.5323 32.1577 57.3764 32.1427 57.21C32.1277 57.0435 32.1716 56.8771 32.2667 56.7397C35.4669 52.0651 39.0121 47.8341 43.4231 43.4231C47.8341 39.0121 52.0658 35.4669 56.7404 32.2667C56.8779 32.1725 57.044 32.1294 57.2099 32.1448C57.3759 32.1602 57.5312 32.2331 57.649 32.351ZM58.9012 37.9699C54.7938 40.5994 51.1236 43.5803 47.3519 47.3519C43.5803 51.1236 40.5994 54.7931 37.9699 58.9012C37.8823 59.0384 37.8442 59.2013 37.8619 59.3631C37.8795 59.5248 37.9518 59.6757 38.0669 59.7908C38.1819 59.9058 38.3328 59.9782 38.4946 59.9958C38.6563 60.0134 38.8193 59.9753 38.9564 59.8877C43.0645 57.2576 46.734 54.276 50.505 50.505C54.276 46.734 57.2576 43.0645 59.8877 38.9564C59.9753 38.8193 60.0134 38.6563 59.9958 38.4946C59.9782 38.3328 59.9058 38.1819 59.7908 38.0669C59.6757 37.9518 59.5248 37.8795 59.3631 37.8619C59.2013 37.8442 59.0384 37.8823 58.9012 37.9699ZM31.0988 52.0301C35.2062 49.4006 38.8764 46.4197 42.6481 42.6481C46.4197 38.8764 49.4006 35.2062 52.0301 31.0988C52.1177 30.9616 52.1558 30.7987 52.1381 30.6369C52.1205 30.4752 52.0482 30.3243 51.9331 30.2092C51.8181 30.0942 51.6672 30.0218 51.5054 30.0042C51.3437 29.9866 51.1807 30.0247 51.0436 30.1123C46.9355 32.7417 43.266 35.7233 39.4943 39.4943C35.7226 43.2652 32.7417 46.9355 30.1123 51.0436C30.0247 51.1807 29.9866 51.3437 30.0042 51.5054C30.0218 51.6672 30.0942 51.8181 30.2092 51.9331C30.3243 52.0482 30.4752 52.1205 30.6369 52.1381C30.7987 52.1558 30.9616 52.1177 31.0988 52.0301Z"
          fill="#003541"/>
</svg>
